<?xml version="1.0" encoding="UTF-8"?>
<svg id="Capa_1" xmlns="http://www.w3.org/2000/svg" viewBox="0 0 422.11 228.81">
  <defs>
    <style>
      .cls-1 {
        fill: #070707;
      }
    </style>
  </defs>
  <path class="cls-1" d="M179.84,56.34L237.66,3.79l-1.45-1.6L4.05,213.14l1.45,1.6,87.62-79.61-34.34,91.49h22.16l21.86-59.98h96.33l21.86,59.98h22.76l-63.92-170.28h0ZM109.01,148.61l14.88-41.44,40.54-36.83,28.5,78.27h-83.92,0Z"/>
  <path class="cls-1" d="M392.65,168.12c-10.34-24.23-21.57-33.98-44.02-37.82,30.73-5.32,51.41-27.18,51.41-55.85,0-36.05-28.37-58.8-71.51-58.8h-81.85v210.97h20.98v-87.17h45.51c36.34,0,48.16,7.68,59.39,34.28l22.16,52.89h23.34l-25.41-58.5ZM267.67,121.13V33.97h59.39c31.02,0,51.41,15.66,51.41,42.85s-21.28,44.32-52.6,44.32h-58.21.01Z"/>
</svg>