<?xml version="1.0" encoding="UTF-8"?>
<svg xmlns="http://www.w3.org/2000/svg" version="1.1" viewBox="0 0 217 60">
  <defs>
    <style>
      .cls-1 {
        fill: #070707;
      }
    </style>
  </defs>
  <!-- Generator: Adobe Illustrator 28.7.5, SVG Export Plug-In . SVG Version: 1.2.0 Build 176)  -->
  <g>
    <g id="Capa_1">
      <g>
        <path class="cls-1" d="M48.3,14.5L63.8.4l-.4-.4L1.3,56.4l.4.4,23.4-21.3-9.2,24.5h5.9l5.8-16h25.8l5.8,16h6.1L48.3,14.5h0ZM29.4,39.1l4-11.1,10.8-9.8,7.6,20.9h-22.4,0Z"/>
        <path class="cls-1" d="M105.2,44.4c-2.8-6.5-5.8-9.1-11.8-10.1,8.2-1.4,13.7-7.3,13.7-14.9s-7.6-15.7-19.1-15.7h-21.9v56.4h5.6v-23.3h12.2c9.7,0,12.9,2.1,15.9,9.2l5.9,14.1h6.2l-6.8-15.6ZM71.8,31.8V8.5h15.9c8.3,0,13.7,4.2,13.7,11.5s-5.7,11.8-14.1,11.8h-15.6,0Z"/>
      </g>
    </g>
  </g>
</svg>