<?xml version="1.0" encoding="UTF-8"?>
<svg xmlns="http://www.w3.org/2000/svg" version="1.1" viewBox="0 0 217 60">
  <defs>
    <style>
      .cls-1 {
        fill: #bf1438;
      }
    </style>
  </defs>
  <!-- Generator: Adobe Illustrator 28.7.5, SVG Export Plug-In . SVG Version: 1.2.0 Build 176)  -->
  <g>
    <g id="Capa_1">
      <g>
        <path class="cls-1" d="M18.8,43.9c.8-1.5,1.2-3.2,1.2-5s-.3-3-.9-4.3c-.6-1.3-1.5-2.6-2.8-3.8-1.3-1.2-2.9-2.4-4.9-3.7-2.4-1.5-4.2-3.1-5.3-4.7-1.2-1.6-1.7-3.2-1.7-4.9s.5-3,1.5-4c1-1.1,2.3-1.6,3.9-1.6s3.6.8,5.1,2.3c1.5,1.5,2.8,3.5,3.9,6l.3-.2h1.8s-5.9-8.4-5.9-8.4c-.9-.1-1.7-.3-2.6-.4-.9-.1-1.7-.2-2.4-.2-2.9,0-5.3.8-7,2.5-1.7,1.7-2.6,3.8-2.6,6.3s.3,3,1,4.3c.7,1.3,1.6,2.5,2.8,3.6,1.2,1.1,2.6,2.2,4.2,3.4,1.7,1.1,3.2,2.2,4.3,3.3,1.1,1.1,2,2.1,2.5,3.2.5,1.1.8,2.3.8,3.6,0,1.9-.5,3.4-1.5,4.6-1,1.2-2.4,1.8-4.2,1.8s-2.5-.3-3.7-1c-1.2-.7-2.4-1.7-3.5-3.1-1.1-1.4-2.1-3.2-2.9-5.3l-.3.2,1.1,8.3,3.2.9c.8.3,1.8.5,2.8.7,1,.2,2.1.3,3.1.3,2,0,3.8-.4,5.2-1.3,1.5-.9,2.6-2.1,3.3-3.6"/>
        <path class="cls-1" d="M23.7,36l6-17.3,5.5,16-11.5,1.3ZM67.1,12h-6.9l-.2.2c.8.2,1.4.6,1.9,1.1.5.5.8,1.4,1,2.5.2,1.1.3,2.6.3,4.5v21.4l-16.9-29.7h-5.9l-.2.2c.8.2,1.4.6,1.9,1.1.5.5.8,1.4,1,2.4.2,1.1.3,2.5.3,4.4v22.9c-.3-.6-.5-1.3-.8-2l-10.7-29.9h-.3l-10.3,29.1c-.9,2.5-1.7,4.2-2.4,5.3-.7,1.1-1.6,1.8-2.7,2.2l.2.2h7l.2-.2c-1.2-.4-2-1.1-2.2-2.2-.2-1.1,0-2.6.7-4.5l1.5-4.2h12.5l1.5,4.3c.8,2.1,1,3.7.8,4.7-.2,1-.9,1.6-2,2l.2.2h10.8l.2-.2c-.7-.2-1.4-.6-1.9-1.1-.5-.5-.8-1.3-1-2.3-.2-1-.3-2.5-.3-4.3v-22l19.7,30.7h.3v-28.3c0-1.9,0-3.4.3-4.5.2-1.1.5-1.9,1-2.5.5-.5,1.1-.9,1.9-1.1l-.2-.2Z"/>
        <path class="cls-1" d="M86.7,39.9c-.6,2.6-1.5,4.6-2.6,5.9-1.1,1.3-2.5,2-4.1,2s-3.1-.7-4.4-2.2c-1.2-1.5-2.2-3.6-2.9-6.3-.7-2.7-1-6-1-9.8s.3-6.9.9-9.5c.6-2.6,1.5-4.6,2.6-5.9,1.1-1.3,2.5-2,4.1-2s3.1.7,4.4,2.2c1.2,1.5,2.2,3.6,2.9,6.4.7,2.8,1,6.1,1,9.9s-.3,6.8-.9,9.4M90.9,20.1c-1.1-2.9-2.3-4.9-4.3-6.5-2-1.6-4.3-2.4-6.9-2.4s-4.9.8-6.9,2.3c-2,1.5-3.5,3.7-4.6,6.4-1.1,2.8-1.6,6-1.6,9.6s.5,7.2,1.6,10.1c1.1,2.9,2.6,5.2,4.6,6.7,2,1.6,4.3,2.4,6.9,2.4s5-.8,6.9-2.3c2-1.5,3.5-3.7,4.6-6.4,1.1-2.8-.2-6.6-.2-10.3s1-6.8,0-9.7"/>
        <path class="cls-1" d="M109.1,29.7l-.2.2c.8.2,1.4.5,1.8,1,.4.5.7,1.2.9,2.2.2,1,.2,2.4.2,4.2v9.1c-1.1.7-2.2,1.1-3.5,1.1s-3.1-.6-4.4-1.7c-1.4-1.1-2.6-2.6-3.6-4.5-1-1.9-1.8-4.1-2.4-6.6-.6-2.5-.9-5-.9-7.7s.4-5.6,1.1-7.9c.7-2.2,1.7-4,2.9-5.2s2.6-1.9,4.2-1.9,3.3.7,5.1,2.2c1.8,1.4,3.3,3.5,4.6,6.1l.3-.2h1.2s-5.9-8.5-5.9-8.5c-1-.1-1.9-.3-2.7-.3-.8,0-1.6-.1-2.2-.1-2.7,0-5.1.8-7.1,2.3-2,1.5-3.6,3.6-4.7,6.3-1.1,2.7-1.7,5.8-1.7,9.5s.3,5.3,1,7.7c.7,2.4,1.7,4.4,2.9,6.2,1.2,1.8,2.7,3.2,4.4,4.2,1.7,1,3.6,1.5,5.6,1.5s1.7,0,2.4-.2c.7-.1,1.3-.3,1.9-.6.6-.2,1.1-.5,1.7-.7.6-.3,1.2-.5,1.9-.7.7-.2,1.5-.4,2.4-.4v-.2c0-.4-.1-.9-.2-1.5,0-.6,0-1.3,0-2v-5.1c0-1.7,0-3.1.2-4.1.2-1,.5-1.7.9-2.2.4-.5,1-.8,1.7-1l-.2-.2h-9.7Z"/>
        <path class="cls-1" d="M162.4,43.7c-.9,1.2-2,2.1-3.2,2.6-1.3.6-2.7.9-4.5.9h-4v-17.2h3.5c1.7,0,2.9.4,3.7,1.2.8.8,1.5,2.1,1.9,3.9l.3-.2v-10.5l-.3-.2c-.5,1.8-1.1,3.1-2,3.9-.9.8-2.1,1.2-3.6,1.2h-3.5V12.7h3.5c2.7,0,4.9.6,6.4,1.9,1.5,1.3,2.8,3.2,3.8,5.7l.3-.2-1.6-8.1h-25.8l-.2.2c.8.2,1.5.6,1.9,1.2.4.6.7,1.4.9,2.5.2,1.1.3,2.6.3,4.5v15.8c0,2.3-.3,4.2-1,5.8-.7,1.6-1.6,2.8-2.9,3.7-1.3.8-2.7,1.3-4.3,1.3s-2.9-.4-4-1.1c-1.2-.7-2.1-1.8-2.7-3.2-.6-1.4-1-3-1-5v-17.3c0-1.9,0-3.4.3-4.5.2-1.1.5-1.9,1-2.5.5-.6,1.1-1,1.9-1.2l-.2-.2h-10.3l-.2.2c.8.2,1.5.6,1.9,1.2.4.6.7,1.4.9,2.5.2,1.1.3,2.6.3,4.5v16.4c0,2.4.5,4.4,1.4,6.2.9,1.7,2.2,3.1,3.9,4.1,1.7,1,3.5,1.4,5.6,1.4,3.2,0,5.7-1.1,7.6-3.2,1.9-2.1,2.8-5,2.8-8.5v-16.3c0-1.9,0-3.4.3-4.5.2-1.1.5-1.9,1-2.5,0,0,0,0,0,0,.6-.8,1.9-.8,2.5,0,0,0,0,0,0,0,.5.5.8,1.4,1,2.5.2,1.1.3,2.6.3,4.5v19.2c0,1.9,0,3.4-.3,4.5-.2,1.1-.5,1.9-1,2.5-.5.5-1.1.9-1.9,1.2l.2.2h20l1.7-8.5-.3-.2c-.7,1.8-1.4,3.3-2.3,4.4"/>
        <path class="cls-1" d="M193.3,36l6-17.3,5.5,16-11.5,1.3ZM175.3,28.9h-2.4V12.8h2.7c1.5,0,2.8.4,3.8,1.1,1,.7,1.8,1.7,2.4,2.9.6,1.2.8,2.5.8,3.9s-.3,2.7-.8,4c-.6,1.3-1.4,2.3-2.5,3.1-1.1.8-2.4,1.2-4,1.2M214.2,45.7c-.7-1-1.4-2.5-2.1-4.5l-10.7-29.9h-.3l-10.3,29.1c-.5,1.5-1.2,3.3-1.8,4.5-.2.4-1.2.3-1.3-.2-.2-1.3-.5-3.1-.6-4.1v-2.6c-.2-1.9-.6-3.4-1.4-4.6-.7-1.2-1.8-2.2-3.2-2.9-1.4-.7-3.1-1.1-5.1-1.2h0c2.1-.1,4-.5,5.4-1.4,1.5-.8,2.6-1.9,3.4-3.3.8-1.3,1.1-2.8,1.1-4.3s-.4-2.8-1.1-4c-.7-1.3-1.8-2.3-3.2-3.1-1.4-.8-3.1-1.2-5.1-1.2h-12.5l-.2.2c.8.2,1.4.6,1.9,1.1.5.5.8,1.4,1,2.5.2,1.1.3,2.6.3,4.5v19.2c0,1.9,0,3.4-.3,4.5-.2,1.1-.5,1.9-1,2.5-.5.5-1.1.9-1.9,1.2l.2.2h10.1l.2-.2c-.8-.3-1.4-.6-1.8-1.2-.4-.5-.7-1.3-.9-2.5-.2-1.1-.2-2.6-.2-4.5v-10h2.7c2.1,0,3.8.7,5,2,1.2,1.3,1.8,3.1,1.8,5.5v5c0,1.5.2,2.7.6,3.8.4,1.1,1,1.8,1.7,2.1h8.3l.2-.2c-1.2-.4-2-1.1-2.2-2.2-.2-1.1,0-2.6.7-4.5l1.5-4.2h12.5l1.5,4.3c.8,2.1,1,3.7.8,4.7-.2,1-.9,1.6-2,2l.2.2h10.8l.2-.2c-1.2-.4-2.1-1.1-2.8-2.1"/>
      </g>
    </g>
  </g>
</svg>