<?xml version="1.0" encoding="UTF-8"?>
<svg xmlns="http://www.w3.org/2000/svg" version="1.1" viewBox="0 0 217 60">
  <defs>
    <style>
      .cls-1 {
        fill: #910022;
      }
    </style>
  </defs>
  <!-- Generator: Adobe Illustrator 28.7.5, SVG Export Plug-In . SVG Version: 1.2.0 Build 176)  -->
  <g>
    <g id="Capa_1">
      <g>
        <path class="cls-1" d="M49.2,52c-.2.5-.5.9-.8,1.3-.7.8-1.7,1.2-3,1.2h-9.5c-1.3,0-3.4.4-4.8,1.6-1.5-1.2-3.5-1.6-4.9-1.6h-8.1c-1.3,0-2.3-.4-3-1.2-1.5-1.6-1.5-4.8-1.5-5.7V14.3h36.5v32.2l3.6,2.9c0-.9,0-1.5,0-1.7V10.7H9.9v36.6c0,.7-.2,5.4,2.5,8.4,1.4,1.5,3.4,2.3,5.7,2.3h8.1c.3,0,3.1.1,3.1,2h3.6c0-1.9,2.8-2,3.1-2h9.5c2.3,0,4.3-.8,5.7-2.3.4-.4.7-.9,1-1.4l-2.9-2.3h0Z"/>
        <g>
          <path class="cls-1" d="M28.1,30c-1-.9-1.4-2-1.1-3.4.3-1.8,1.3-3,2.9-3.7,1.3-.6,2.5-.4,3.7.5.9.7,1.5,1.6,1.7,2.6l.2,1,4.4-1.4-.2-.8c-.3-1.3-.9-2.4-1.7-3.5-1.4-1.7-2.9-2.7-4.7-3-3.9-.7-7.5,1-9.6,4.6-1.7,2.9-1.7,6,0,9,.6,1.1,1.5,1.8,2.3,2.5h.2c.7.7,2.4,2.1,4.2,3.5l3,2.5,2.3-4.2-7.3-6.1Z"/>
          <path class="cls-1" d="M41.2,46.7l-4.1-3.3h0c-.3.5-.6,1-1,1.4-.9.9-2.1,1.3-3.7,1.4-1.5,0-2.7-.5-3.5-1.4-.4-.4-.8-.9-1-1.4h-5.6c.2,1.1.6,2,1.2,2.9.2.2.3.5.5.7h0s0,0,0,0c.2.3.5.6.8.9.5.6,1.1,1.1,1.9,1.5,1.6.9,3.4,1.3,5.6,1.3h.1c.1,0,.2,0,.3,0,2.1,0,4-.5,5.6-1.3.8-.5,1.5-1.1,2.1-1.7.2-.2.3-.3.5-.5,0,0,0,0,.1-.1h0c0-.1.2-.2.2-.3h0Z"/>
        </g>
        <polygon class="cls-1" points="47.1 0 43.8 3.6 39.9 3.6 42.7 0 38.4 0 35.6 3.6 33.9 3.6 33.9 0 29.6 0 29.6 3.6 27.8 3.6 25 0 20.7 0 23.5 3.6 19.6 3.6 16.4 0 11.7 0 18.2 7.2 30.1 7.2 33.3 7.2 45.2 7.2 51.7 0 47.1 0"/>
      </g>
      <g>
        <path class="cls-1" d="M76.3,15.4c-.2-.2-.4-.4-.7-.6-.3-.2-.7-.4-1.1-.6s-.9-.3-1.4-.4c-.5-.1-1-.2-1.6-.2-1.2,0-2,.2-2.6.6s-.9,1-.9,1.8.2,1,.5,1.3.8.6,1.5.8,1.5.4,2.4.7c1.2.3,2.2.6,3.1,1,.9.4,1.6.9,2,1.5.5.6.7,1.5.7,2.5s-.2,1.7-.5,2.3c-.3.6-.8,1.2-1.4,1.6-.6.4-1.3.7-2.1.9-.8.2-1.6.3-2.5.3s-1.8,0-2.6-.3c-.9-.2-1.7-.4-2.5-.8-.8-.4-1.5-.8-2.2-1.3l1.3-2.4c.2.2.5.4.9.7s.9.5,1.4.7,1.1.4,1.8.6c.6.2,1.3.2,2,.2,1.1,0,2-.2,2.6-.6.6-.4.9-.9.9-1.7s-.2-1.1-.6-1.4c-.4-.4-.9-.7-1.7-.9-.7-.2-1.6-.5-2.6-.7-1.2-.3-2.1-.7-2.9-1-.8-.4-1.4-.8-1.8-1.4s-.6-1.3-.6-2.2.3-2.1.9-2.9c.6-.8,1.3-1.4,2.3-1.8s2.1-.6,3.3-.6,1.6,0,2.3.3c.7.2,1.4.4,2,.7.6.3,1.2.6,1.7,1l-1.3,2.3h0Z"/>
        <path class="cls-1" d="M86.7,29.1c-1,0-1.9-.2-2.8-.5-.8-.4-1.5-.8-2.1-1.5s-1.1-1.3-1.4-2.1c-.3-.8-.5-1.6-.5-2.5s.3-2.3.9-3.3c.6-1,1.4-1.8,2.4-2.4,1-.6,2.2-.9,3.6-.9s2.6.3,3.5.9c1,.6,1.8,1.4,2.3,2.4.6,1,.8,2.1.8,3.2s0,.4,0,.6c0,.2,0,.3,0,.4h-10.5c0,.7.3,1.4.6,2,.4.6.9,1,1.4,1.3.6.3,1.2.5,1.9.5s1.4-.2,2.1-.5,1.1-.8,1.3-1.4l2.4.7c-.3.6-.7,1.2-1.3,1.7-.6.5-1.3.9-2,1.2-.8.3-1.6.4-2.6.4h0ZM82.8,21.5h7.9c0-.7-.3-1.4-.6-1.9-.4-.6-.9-1-1.4-1.3-.6-.3-1.2-.5-1.9-.5s-1.3.2-1.9.5-1,.7-1.4,1.3c-.4.6-.6,1.2-.6,1.9h0Z"/>
        <path class="cls-1" d="M100.9,29.1c-.9,0-1.7-.2-2.4-.5-.7-.4-1.4-.8-1.9-1.5-.5-.6-.9-1.3-1.2-2.1-.3-.8-.4-1.6-.4-2.5s.2-1.8.4-2.6c.3-.8.7-1.5,1.3-2.1.5-.6,1.2-1.1,1.9-1.5.7-.4,1.6-.5,2.4-.5s2,.2,2.8.7,1.5,1.1,2,1.9v-2.5h2.4v12.5c0,1.3-.3,1.7-.9,2.6s-1.4,1.5-2.5,2c-1.1.5-2.2.7-3.6.7s-2.7-.2-3.6-.7-1.8-1.2-2.4-2l1.6-1.4c.5.7,1.1,1.2,1.9,1.6.8.4,1.6.5,2.5.5s1.5-.1,2.1-.4c.6-.3,1.2-.7,1.5-1.2.4-.6.6-.6.6-1.5v-2c-.5.8-1.1,1.4-1.9,1.8s-1.7.7-2.6.7h0ZM101.8,26.9c.4,0,.8,0,1.2-.2.4-.1.7-.3,1.1-.6s.6-.5.8-.8c.2-.3.4-.6.5-1v-3.4c-.2-.6-.5-1.1-.9-1.5-.4-.4-.9-.7-1.3-1-.5-.2-1-.4-1.5-.4s-1.1.1-1.6.4-.9.6-1.2,1-.6.9-.8,1.4c-.2.5-.3,1.1-.3,1.6s.1,1.1.3,1.7.5,1,.9,1.4.8.7,1.3.9,1,.3,1.6.3h0Z"/>
        <path class="cls-1" d="M117.3,29.1c-1,0-2-.2-2.8-.5-.8-.4-1.5-.8-2.1-1.5-.6-.6-1-1.3-1.4-2.1-.3-.8-.5-1.6-.5-2.5s.2-1.8.5-2.6c.3-.8.8-1.5,1.4-2.1.6-.6,1.3-1.1,2.1-1.5.8-.4,1.7-.5,2.8-.5s1.9.2,2.8.5c.8.4,1.5.8,2.1,1.5.6.6,1,1.3,1.4,2.1.3.8.5,1.7.5,2.6s-.2,1.7-.5,2.5-.8,1.5-1.4,2.1c-.6.6-1.3,1.1-2.1,1.5-.8.4-1.7.5-2.8.5h0ZM113.4,22.4c0,.8.2,1.5.5,2.2.4.7.8,1.2,1.4,1.5.6.4,1.2.6,2,.6s1.4-.2,2-.6c.6-.4,1.1-.9,1.4-1.6.4-.7.5-1.4.5-2.2s-.2-1.5-.5-2.2c-.4-.7-.8-1.2-1.4-1.6-.6-.4-1.2-.6-2-.6s-1.4.2-2,.6-1.1.9-1.4,1.5c-.4.6-.5,1.4-.5,2.2h0Z"/>
        <path class="cls-1" d="M133.9,18.2c-1.1,0-2,.3-2.8.7-.8.5-1.4,1.1-1.8,2v7.9h-2.8v-12.9h2.6v2.8c.4-.9,1-1.6,1.8-2.1.7-.5,1.5-.8,2.3-.9h.4c.1,0,.2,0,.3,0v2.5h0Z"/>
        <path class="cls-1" d="M142.9,29.1c-1,0-1.9-.2-2.7-.7-.8-.5-1.5-1.1-1.9-1.9v2.4h-2.4V10.7h2.8v7.7c.5-.8,1.2-1.5,1.9-2,.8-.5,1.7-.7,2.7-.7s1.7.2,2.4.5,1.3.9,1.8,1.5c.5.6.9,1.3,1.2,2.1.3.8.4,1.7.4,2.6s-.2,1.8-.5,2.6c-.3.8-.7,1.5-1.3,2.1-.6.6-1.2,1.1-2,1.4-.7.3-1.6.5-2.4.5h0ZM142.2,26.8c.6,0,1.1-.1,1.7-.4s.9-.6,1.3-.9.6-.8.8-1.4.3-1.1.3-1.6-.2-1.5-.5-2.2c-.3-.7-.8-1.2-1.4-1.6s-1.3-.6-2-.6-1.1.1-1.6.4-.9.6-1.3,1c-.4.4-.7.9-.9,1.4v3.4c.1.4.3.7.5,1,.2.3.5.6.9.8.3.2.7.4,1.1.5.4.1.7.2,1.1.2h0Z"/>
        <path class="cls-1" d="M151.6,13.7v-3h2.8v3h-2.8ZM151.6,28.8v-13h2.8v13h-2.8Z"/>
        <path class="cls-1" d="M169.4,28.8h-2.8v-7.2c0-1.2-.2-2.1-.6-2.6-.4-.6-1-.8-1.7-.8s-1.1.1-1.6.4c-.5.3-1,.6-1.4,1.1-.4.4-.7,1-.9,1.5v7.6h-2.8v-12.9h2.5v2.6c.3-.6.8-1.1,1.3-1.5.5-.4,1.2-.7,1.8-1s1.4-.3,2.2-.3,1.4.1,1.9.4c.5.3.9.7,1.2,1.1s.5,1,.6,1.7.2,1.3.2,2v7.8h0Z"/>
        <path class="cls-1" d="M171.6,25.1c0-.8.2-1.5.7-2.1.5-.6,1.1-1.1,2-1.4s1.8-.5,2.9-.5,1.2,0,1.8.1c.6,0,1.1.2,1.6.4v-.8c0-.9-.3-1.6-.8-2.1-.6-.5-1.3-.8-2.4-.8s-1.4.1-2.1.4c-.7.3-1.3.6-2.1,1.1l-.9-1.8c.9-.6,1.7-1,2.6-1.3.9-.3,1.8-.4,2.8-.4,1.8,0,3.1.5,4.1,1.4,1,.9,1.5,2.2,1.5,3.9v4.8c0,.3,0,.5.2.7s.3.2.6.2v2.2c-.2,0-.5,0-.7,0-.2,0-.4,0-.5,0-.6,0-1-.1-1.3-.4-.3-.3-.5-.6-.5-1v-.7c-.6.7-1.4,1.3-2.2,1.7-.9.4-1.8.6-2.7.6s-1.6-.2-2.3-.5c-.7-.4-1.2-.8-1.6-1.4-.4-.6-.6-1.3-.6-2h0ZM180,25.9c.2-.2.4-.4.5-.6.1-.2.2-.4.2-.6v-1.5c-.5-.2-1-.3-1.5-.4s-1-.1-1.5-.1c-1,0-1.8.2-2.4.6-.6.4-.9.9-.9,1.6s.1.7.3,1.1c.2.3.5.6.9.8.4.2.9.3,1.5.3s1.2-.1,1.7-.3,1-.5,1.3-.9h0Z"/>
      </g>
      <g>
        <path class="cls-1" d="M198,11.7c2.2,0,3.9,1.8,3.9,3.9s-1.8,3.9-3.9,3.9-3.9-1.8-3.9-3.9,1.8-3.9,3.9-3.9M198,11.1c-2.5,0-4.6,2.1-4.6,4.6s2.1,4.6,4.6,4.6,4.6-2.1,4.6-4.6-2.1-4.6-4.6-4.6h0Z"/>
        <path class="cls-1" d="M196.5,17.7v-4.1h1.8c.2,0,.4,0,.5.1.2,0,.3.2.4.3.1.1.2.3.3.4s0,.3,0,.5,0,.4-.1.5c0,.2-.2.3-.3.4s-.3.2-.5.2l1,1.6h-.6l-.9-1.5h-1.1v1.5h-.5,0ZM197,15.8h1.2c.1,0,.3,0,.4-.1s.2-.2.2-.3,0-.3,0-.4,0-.3-.1-.4c0-.1-.2-.2-.3-.3s-.2-.1-.4-.1h-1.2v1.7h0Z"/>
      </g>
      <g>
        <path class="cls-1" d="M78,51.9c0,.9-.2,1.7-.7,2.4-.5.7-1.1,1.3-1.9,1.7-.8.4-1.6.6-2.5.6h-8.6v-18.2h8.8c.9,0,1.6.2,2.2.7s1.1,1,1.4,1.7.5,1.5.5,2.2-.2,1.7-.7,2.5-1.1,1.3-1.9,1.7c1,.3,1.9.9,2.5,1.7s.9,1.8.9,2.9h0ZM66.1,39.9v6.7h6.2c.6,0,1.1-.2,1.6-.5.5-.3.8-.7,1.1-1.2s.4-1.1.4-1.6-.1-1.2-.4-1.7c-.3-.5-.6-.9-1.1-1.2s-.9-.5-1.5-.5h-6.4ZM76.2,51.6c0-.6-.1-1.2-.4-1.7s-.6-.9-1.1-1.3c-.5-.3-1-.5-1.6-.5h-7v6.9h6.8c.6,0,1.2-.2,1.7-.5s.9-.7,1.2-1.3c.3-.5.4-1.1.4-1.7h0Z"/>
        <path class="cls-1" d="M79.9,52.7c0-.8.2-1.5.7-2.2.5-.6,1.1-1.1,2-1.4s1.8-.5,2.9-.5,1.3,0,2,.2,1.3.3,1.9.5v-1.1c0-1.1-.3-2-1-2.7s-1.6-1-2.8-1-1.4.1-2.1.4c-.7.3-1.4.7-2.2,1.2l-.7-1.2c.9-.6,1.7-1,2.6-1.3.8-.3,1.7-.4,2.6-.4,1.6,0,2.9.5,3.9,1.4,1,.9,1.4,2.2,1.4,3.9v6.1c0,.2,0,.4.2.5s.3.2.5.2v1.4c-.2,0-.4,0-.5,0-.1,0-.2,0-.3,0-.4,0-.7-.2-1-.4s-.3-.5-.4-.8v-1c-.6.8-1.4,1.4-2.4,1.8-1,.4-1.9.6-2.9.6s-1.6-.2-2.3-.6c-.7-.4-1.2-.9-1.6-1.5-.4-.6-.6-1.3-.6-2.1h0ZM88.9,53.7c.2-.2.3-.5.4-.7s.2-.4.2-.6v-1.9c-.6-.2-1.2-.4-1.8-.5-.6-.1-1.3-.2-1.9-.2-1.2,0-2.2.2-3,.7s-1.1,1.2-1.1,2,.1.9.4,1.4c.3.4.6.8,1.1,1.1.5.3,1.1.4,1.7.4s1.6-.2,2.3-.5c.7-.3,1.3-.7,1.7-1.2h0Z"/>
        <path class="cls-1" d="M99.3,56.8c-1.1,0-2.1-.2-3-.5-.9-.4-1.7-.9-2.4-1.6l.7-1.2c.7.7,1.5,1.2,2.3,1.5.8.3,1.6.5,2.4.5s1.9-.2,2.5-.6c.6-.4,1-1,1-1.8s-.2-.9-.5-1.2-.8-.5-1.4-.7c-.6-.2-1.3-.4-2.1-.6-.9-.3-1.7-.5-2.3-.8s-1.1-.6-1.4-1.1c-.3-.4-.5-1-.5-1.7s.2-1.6.7-2.2c.4-.6,1-1,1.8-1.3.8-.3,1.6-.4,2.5-.4s1.9.2,2.7.5,1.4.8,1.9,1.4l-.8,1.2c-.5-.6-1-.9-1.7-1.2-.7-.3-1.4-.4-2.2-.4s-1.1,0-1.6.2c-.5.1-.9.4-1.2.7s-.5.8-.5,1.4.1.8.4,1.1.6.5,1.1.7c.5.2,1.1.4,1.8.6,1,.3,1.9.6,2.6.8.7.3,1.3.6,1.7,1.1.4.4.6,1.1.6,1.9,0,1.2-.5,2.2-1.4,2.9-.9.7-2.2,1-3.7,1h0Z"/>
        <path class="cls-1" d="M113.7,56c-.1,0-.4.1-.6.3-.3.1-.6.3-1,.4-.4.1-.9.2-1.3.2s-1,0-1.4-.3c-.4-.2-.8-.5-1-.9-.3-.4-.4-.9-.4-1.4v-9.6h-1.8v-1.4h1.8v-4.5h1.7v4.5h3.1v1.4h-3.1v9.1c0,.5.2.8.5,1.1s.7.4,1.1.4.9,0,1.3-.2c.4-.2.6-.3.7-.3l.5,1.4h0Z"/>
        <path class="cls-1" d="M121.3,56.8c-1,0-1.8-.2-2.6-.6-.8-.4-1.5-.9-2.1-1.5-.6-.6-1-1.4-1.4-2.2-.3-.8-.5-1.7-.5-2.6s.2-1.8.5-2.7c.3-.8.8-1.6,1.4-2.2.6-.6,1.3-1.1,2.1-1.5s1.7-.6,2.6-.6,1.8.2,2.6.6c.8.4,1.5.9,2.1,1.5.6.6,1.1,1.4,1.4,2.2.3.8.5,1.7.5,2.7s-.2,1.8-.5,2.6-.8,1.6-1.4,2.2c-.6.6-1.3,1.1-2.1,1.5s-1.7.6-2.7.6h0ZM116.5,50c0,1,.2,1.9.7,2.7.4.8,1,1.4,1.8,1.9.7.5,1.5.7,2.4.7s1.7-.2,2.4-.7,1.3-1.1,1.8-1.9.7-1.7.7-2.7-.2-1.9-.7-2.7-1-1.5-1.8-1.9-1.5-.7-2.4-.7-1.7.2-2.4.7c-.7.5-1.3,1.1-1.8,1.9s-.7,1.7-.7,2.7Z"/>
        <path class="cls-1" d="M142.1,56.5h-1.7v-7.4c0-1.6-.2-2.7-.7-3.4s-1.2-1.1-2.2-1.1-1.4.2-2,.5-1.3.8-1.8,1.3-.9,1.2-1.1,1.9v8.1h-1.7v-13.3h1.6v3c.4-.6.8-1.2,1.4-1.7.6-.5,1.2-.9,2-1.1.7-.3,1.5-.4,2.3-.4s1.4.1,1.9.4c.5.3.9.7,1.2,1.2.3.5.5,1.1.7,1.8.1.7.2,1.5.2,2.4v7.8h0Z"/>
        <path class="cls-1" d="M151.5,56.8c-1,0-1.8-.2-2.7-.6-.8-.4-1.5-.9-2.1-1.5-.6-.6-1.1-1.4-1.4-2.2s-.5-1.7-.5-2.7.3-2.4.9-3.4c.6-1,1.4-1.9,2.4-2.5,1-.6,2.1-.9,3.4-.9s2.5.3,3.4.9c1,.6,1.8,1.5,2.3,2.5.6,1,.8,2.2.8,3.4v.4c0,.1,0,.2,0,.3h-11.4c0,.9.4,1.8.8,2.5.5.7,1,1.3,1.8,1.8.7.4,1.5.6,2.4.6s1.7-.2,2.5-.7,1.3-1,1.6-1.7l1.5.4c-.3.6-.7,1.2-1.3,1.7-.6.5-1.2.9-2,1.2s-1.6.4-2.4.4h0ZM146.6,49.3h9.9c0-1-.3-1.8-.8-2.5-.5-.7-1-1.3-1.8-1.7-.7-.4-1.5-.6-2.4-.6s-1.7.2-2.4.6c-.7.4-1.3,1-1.8,1.7-.5.7-.7,1.6-.8,2.5h0Z"/>
        <path class="cls-1" d="M165.2,56.8c-1.1,0-2.1-.2-3-.5-.9-.4-1.7-.9-2.4-1.6l.7-1.2c.7.7,1.5,1.2,2.3,1.5.8.3,1.6.5,2.4.5s1.9-.2,2.5-.6c.6-.4,1-1,1-1.8s-.2-.9-.5-1.2-.8-.5-1.4-.7c-.6-.2-1.3-.4-2.1-.6-.9-.3-1.7-.5-2.3-.8s-1.1-.6-1.4-1.1c-.3-.4-.5-1-.5-1.7s.2-1.6.7-2.2c.4-.6,1-1,1.8-1.3.8-.3,1.6-.4,2.5-.4s1.9.2,2.7.5,1.4.8,1.9,1.4l-.8,1.2c-.5-.6-1-.9-1.7-1.2-.7-.3-1.4-.4-2.2-.4s-1.1,0-1.6.2c-.5.1-.9.4-1.2.7s-.5.8-.5,1.4.1.8.4,1.1.6.5,1.1.7c.5.2,1.1.4,1.8.6,1,.3,1.9.6,2.6.8.7.3,1.3.6,1.7,1.1.4.4.6,1.1.6,1.9,0,1.2-.5,2.2-1.4,2.9-.9.7-2.2,1-3.7,1h0Z"/>
      </g>
    </g>
  </g>
</svg>