<?xml version="1.0" encoding="UTF-8"?>
<svg id="Capa_1" xmlns="http://www.w3.org/2000/svg" viewBox="0 0 457.24 348.73">
  <defs>
    <style>
      .cls-1 {
        fill: #c64b52;
      }

      .cls-2 {
        fill: #eedfc0;
      }
    </style>
  </defs>
  <g>
    <path class="cls-2" d="M226.99,12.08c2.79-.46,5.58-.8,5.67,1.71.11,3.04-1.47,3.7-3.45,4.43-1.98.73-5.69,1.62-21.63,4.26-9.97,5.1-18.07,14.12-23.82,25.4-6.62,12.88-9,17.5-10.02,18.99,2.96-.73,5.91-1.46,8.87-2.2,2.12-.47,5.69-1.58,6.58-2.65.64-.77.76-1.05,1.27-1.8,1.02-1.49,2.94-3.93,6.12-4.45,1.06-.17,2.26-.24,3.34-.02-7.22,7.56-13.21,15.57-18.11,24.45-.27-.09-.54-.18-.81-.27,1.56-5.03,4.06-9.95,6.42-14.98-2.77.84-6.22,1.8-14.29,3.74-8.88,17.2-17.51,29.93-26.18,37.97-8.67,8.03-18.24,12.69-28.74,14.03-5.31.68-12.28-.07-16.77-2.61-4.77-2.77-6.88-6.14-7.05-10.76-.12-3.57,1.88-7.37,5.73-7.81,2.79-.32,4.45,1.48,4.55,4.12.08,2.38-1.03,4.77-3.56,5.06-.8.09-.8.09-1.33.02.66,7.49,7.08,11.84,18.9,10.33,7.57-.97,15.43-5.1,21.88-11.59,12.25-12.37,19.94-28.97,24.59-37.38-1.73.27-3.45.53-5.18.79.07-.54.14-1.08.21-1.63,1.9-.29,3.81-.58,5.71-.87,8.53-15.79,15.63-26.62,21.43-32.6,5.8-5.98,11.79-10.42,17.98-12.9,0-.09,0-.18,0-.26-8.9,1.46-19.01,2.6-34.82,5.08-18.6,2.9-32.44,7.91-42.87,14.89-10.43,6.97-16,15.6-15.69,24.47.28,7.93,7.24,12.41,18.26,10.91,7.17-.97,15.2-4.51,21.79-10.4,6.6-5.89,9.71-12.48,9.5-18.56-.11-3.04-.84-4.92-1.45-7.08.44-.16.88-.31,1.32-.47,1.02,2.37,1.64,4.8,1.73,7.44.2,5.81-2.89,12.8-9.74,19.27-6.59,6.16-14.6,10.24-23.23,11.41-11.82,1.6-19.46-3.07-19.79-12.59-.33-9.53,5.84-19.67,19.01-28.62,13.17-8.94,31.89-15.53,54.34-19.14,14.35-2.3,27.11-3.9,32.43-4.78,3.32-.55,6.76-1.65,10.87-2.34Z"/>
    <path class="cls-2" d="M202.8,84.36c-1.87,3.89-3.03,8.73-2.88,13.09.18,5.15,2.57,8.35,6.81,7.64,11.82-1.95,32.24-21.71,42.38-41.05.36.16.72.32,1.09.48-9.63,18.85-30.24,40.51-46.18,43.13-7.44,1.23-11.83-2.05-12.07-9.05-.21-6.08,3.44-16.23,11.51-25.92,8.2-9.85,17.35-15.63,24.13-16.76,4.38-.73,7.1.68,7.23,4.24.25,6.99-15.02,17.39-32.02,24.18ZM228.44,61.11c-.09-2.51-1.59-3.45-3.72-3.1-6.11,1.02-16.87,13.96-21.31,24.79,11.6-4.3,25.31-13.63,25.02-21.69Z"/>
    <path class="cls-2" d="M291.48,0c-24.91,43.45-40.16,69.82-45.31,79.15-4.9,8.91-7.77,14.57-7.65,18.01.08,2.11,1.04,3.15,3.04,2.82,3.85-.64,9.19-4.45,15.76-11.64,6.69-7.21,13.7-16.98,21.15-29.05.49.1.99.2,1.48.3-6.95,11.33-14.08,21.25-21.15,29.05-7.21,7.82-12.66,12.18-17.71,13.02-5.45.91-7.79-1.36-7.94-5.45-.11-3.04.83-6.65,2.69-10.81,1.85-4.29,7.37-14.38,16.69-30.66,9.32-16.15,19.24-34.23,29.65-53.27,3.1-.49,6.2-.97,9.3-1.45Z"/>
    <path class="cls-2" d="M292.98,46.52c-20.19,33.54-25.12,41.57-24.98,45.65.08,2.25.91,3.3,2.91,2.98,9.82-1.74,29.79-26.34,37.05-40.26.36.17.72.34,1.08.51-9.53,17.44-28.12,39.71-39.14,41.51-4.78.77-7.15-2.03-7.26-5.2-.28-7.92,7.49-18.64,21.83-43.87,2.83-.44,5.67-.88,8.5-1.32ZM300.13,29.5c-2.53.38-4.31-1.21-4.4-3.72-.09-2.51,1.84-4.66,4.1-5,2.26-.34,4.32,1.21,4.4,3.72.09,2.51-1.58,4.62-4.1,5Z"/>
    <path class="cls-2" d="M329.96,57.92c-14.07,13.45-23.78,22.21-29.24,26.48.09.07.18.15.27.22,3.66-2.14,6.69-3.39,9.75-3.83,8.1-1.17,12.68,3.78,17.2,3.17,8.63-1.18,21.71-16.25,32.35-36.28.23.15.45.3.68.46-9.58,19.63-26.1,39.09-37.93,40.75-7.97,1.11-12.44-4.62-20.28-3.46-5.31.79-7.76,7.28-10.02,7.63-.53.08-.81-.27-.83-.8-.06-1.55,13.17-12.9,38.5-36.65,3.75-3.56,7.74-7.4,12.01-11.52-.09-.08-.18-.15-.28-.23-2.06,1.98-6.13,3.97-9.85,4.46-3.59.47-10.24-2.87-14.89-2.21-2.12.3-4.1,1.11-9.11,10.48-.31-.09-.63-.17-.94-.26,4.95-11.22,8.84-14.3,14.69-15.12,7.84-1.09,12.9,2.51,17.02,1.98,2.79-.36,5.15-1.45,6.7-2.83,2.46-2.16,3.04-4.75,4.5-4.93.53-.06.81.3.83.96.03.94-7.05,8.1-21.13,21.54Z"/>
    <path class="cls-2" d="M76.95,137.67c-.35,1.63-1.16,4.89-.91,12.17.18,5.16,1.05,11.06,3.29,21.74,1.92,9.25,3.13,17.23,3.38,24.24.19,5.43-.29,10.79-1.8,17.18.09.08.18.16.27.24,11.63-29.29,22.08-50.94,32.63-65.8,10.42-14.72,19.13-21.49,26.7-22.56,5.98-.85,10.09,2.26,10.26,7.15.19,5.42-4.41,11.28-10.71,14.3,0-.26-.02-.53-.03-.79,3.25-2.45,4.55-7.16,4.43-10.73-.13-3.57-2.87-5.56-6.72-5.02-7.04.99-15.46,8.37-25.24,22.33-9.78,13.83-21.72,38.72-35.77,74.96-.31.03-.62.06-.93.09.88-5.26,1.23-10.34,1.06-15.5-.28-7.81-1.59-15.13-3.44-25.85-1.5-8.63-3.08-15.67-3.52-28.11-.04-1.19-.06-5.57-.12-7.3-.09,0-.18.02-.27.02-4.05,9.91-8.58,21.3-14.16,32.99-5.71,11.96-12.36,23.54-20.15,32.68-8.04,9.55-16.65,14.61-24.75,14.73-5.31.08-10.32-2.58-10.47-6.83-.1-2.79,2.08-4.91,4.88-4.93,2.26-.02,4.05,1.69,4.12,3.94.04,1.19-.17,2.79-1.62,3.21.17.93,1.82,2.51,5.14,2.45,4.78-.08,9.89-2.35,14.54-6.25,3.62-2.92,9.66-9.15,16.58-20.31,5.54-8.95,12.15-21.75,17.57-34.39,6.78-15.54,9.95-23.94,10.44-25.17.84-6.32,3.48-10.93,7.33-11.3-.59,2.05-1.58,4.27-2.04,6.43Z"/>
    <path class="cls-2" d="M150.84,179.04c1.37-2.81,2.74-5.63,4.11-8.45,2.88-.43,5.76-.87,8.63-1.31-9.6,15.7-24.02,38.49-23.78,45.22.08,2.25,1.18,3.29,3.71,2.92,7.04-1,22.87-17.85,35.71-40.36.27.05.54.09.81.14-14.09,24.7-28.35,40.66-37.92,42.01-5.18.74-7.54-1.86-7.67-5.43-.09-2.51.75-5.15,1.6-7.53-.09-.03-.18-.06-.27-.1-8.06,10.02-15.85,16.09-21.69,16.82-6.51.81-9.07-3.68-9.25-8.84-.22-6.49,3.57-15.95,11.5-25.84,7.92-9.9,16.27-15.55,22.78-16.47,5.71-.81,9.79,1.25,11.47,7.24.09-.01.18-.03.27-.04ZM135.7,204.32c7.27-9.65,10.81-19.21,10.58-25.68-.13-3.83-2.74-5.84-6.33-5.34-9.83,1.43-27.72,23.9-27.14,40.27.15,4.1,1.95,6.14,5,5.75,3.59-.46,10.62-5.36,17.89-15.01Z"/>
    <path class="cls-2" d="M214.79,174.59c1.95,2.33,6.27,3.47,9.85,2.88,4.65-.78,10.41-3.99,13.54-9.96.36.16.72.32,1.09.48-2.09,5.13-8.46,10.04-14.71,11.08-3.85.64-7.64-.72-10.24-2.41-4.4,15.34-22.15,34.9-37.16,37.27-7.44,1.18-11.67-1.37-11.95-9.29-.16-4.63,2.79-11.85,8.99-21.72,6.2-9.87,9.74-15.49,10.36-16.92,2.88-.46,5.75-.93,8.63-1.4-14.58,22.29-21.75,34.82-21.47,42.75.11,3.17,1.93,5.54,6.58,4.81,5.57-.88,13.25-6.77,19.97-17.17,6.85-10.42,9.87-19.56,9.69-24.71-.05-1.45-1.17-2.73-1.23-4.71-.07-2.11,1.18-4.45,3.44-4.82,2.39-.4,4.74,1.74,4.97,8.47.07,2.11-.27,3.63-.35,5.37Z"/>
    <path class="cls-2" d="M252.3,154.8c-20.19,33.76-25.12,41.77-24.98,45.86.08,2.25.92,3.3,2.91,2.97,9.83-1.78,29.8-26.6,37.05-40.65.36.16.72.33,1.09.49-9.54,17.6-28.12,40.08-39.14,41.92-4.78.8-7.15-2-7.26-5.16-.28-7.92,7.49-18.65,21.83-44.01,2.83-.47,5.67-.94,8.5-1.41ZM259.45,137.69c-2.52.41-4.32-1.15-4.4-3.66-.09-2.51,1.84-4.69,4.1-5.06,2.26-.37,4.31,1.15,4.4,3.66.09,2.51-1.58,4.64-4.1,5.05Z"/>
    <path class="cls-2" d="M339.29,95.64c-6.52,11.86-16.73,29.14-30.71,52.97-13.98,23.84-21.22,38.42-21.07,42.63.07,1.98,1.3,2.98,3.03,2.72,9.43-1.47,25.92-22.36,35.19-39.55.36.13.72.26,1.08.38-8.63,16.43-25.59,39.08-36.62,40.81-5.71.88-8.46-1.33-8.59-5.03-.12-3.3,1.62-7.16,2.87-9.62-.09-.03-.18-.06-.27-.09-9.69,13.21-16.19,18.25-22.57,19.29-6.38,1.04-10.12-2.85-10.31-8.14-.21-6.07,3.83-16.31,12.56-26.63,8.85-10.47,17.99-16.31,24.37-17.3,5.71-.89,9.29,2.29,9.49,7.97.13-.02.27-.04.4-.06,10.79-19.83,21.58-39.58,32.36-59.22,2.92-.39,5.84-.77,8.77-1.15ZM282.97,179.87c7.79-10.39,11.23-18.74,11.08-23.1-.14-4.09-1.08-7.81-6.25-7-4.52.7-11.53,6.46-18.51,16.75-6.99,10.29-10.14,19.32-9.97,24.33.13,3.7,1.42,6.27,5.14,5.67,3.85-.63,10.87-6.28,18.52-16.65Z"/>
    <path class="cls-2" d="M357.24,147.4c1.37-2.77,2.74-5.53,4.11-8.3,2.88-.32,5.76-.63,8.63-.92-9.6,15.17-24.02,37.64-23.78,44.4.08,2.25,1.18,3.31,3.71,3,7.04-.86,22.87-17.11,35.71-38.67.27.06.54.13.81.19-14.09,23.67-28.35,39.07-37.92,40.23-5.18.63-7.54-1.99-7.67-5.56-.09-2.51.76-5.14,1.6-7.51-.09-.03-.18-.07-.27-.1-8.06,9.91-15.85,16.01-21.7,16.83-6.51.91-9.06-3.49-9.25-8.64-.23-6.47,3.57-16.07,11.5-26.07,7.92-10,16.27-15.6,22.78-16.4,5.71-.7,9.79,1.49,11.47,7.54.09-.01.18-.02.27-.03ZM342.11,172.32c7.27-9.54,10.81-18.98,10.58-25.46-.14-3.84-2.75-5.92-6.33-5.48-9.83,1.17-27.72,23.83-27.14,40.24.14,4.1,1.95,6.1,5,5.68,3.59-.49,10.62-5.43,17.89-14.97Z"/>
    <path class="cls-2" d="M457.24,87.25c-6.53,11.03-16.72,27.04-30.71,49.4-13.98,22.39-21.22,36.38-21.07,40.6.07,1.99,1.31,3.1,3.03,2.99,9.43-.64,25.92-19.81,35.19-35.88.36.17.72.34,1.08.51-8.63,15.38-25.59,36.23-36.62,36.98-5.71.37-8.46-2.07-8.59-5.79-.11-3.31,1.61-7.03,2.87-9.37-.09-.04-.18-.08-.27-.11-9.69,12.38-16.19,16.94-22.57,17.54-6.38.6-10.12-3.51-10.31-8.81-.21-6.08,3.84-16.09,12.56-25.8,8.85-9.85,18-14.93,24.37-15.35,5.71-.38,9.3,3.16,9.49,8.85.13,0,.27-.01.4-.02,10.79-18.79,21.58-37.36,32.36-55.69,2.92-.04,5.84-.06,8.77-.06ZM400.92,165.48c7.79-9.72,11.23-17.73,11.08-22.11-.15-4.11-1.08-7.92-6.25-7.58-4.52.3-11.53,5.46-18.51,15.23-6.99,9.77-10.14,18.6-9.97,23.62.13,3.71,1.42,6.37,5.14,6.03,3.85-.35,10.87-5.48,18.52-15.2Z"/>
  </g>
  <g>
    <path class="cls-1" d="M104.84,312.62c-9.81,5.37-17.48,8.9-23.8,12.11-7.82,3.97-13.46,7.04-18.75,10.74.12.22.24.44.36.67,3.32-1.79,6.8-3.93,11.02-4.12,7.44-.28,23.31,7.98,29.89,7.4,7.61-.61,16.11-9.53,22.87-24.6.4.01.79.03,1.19.04-9.11,20.73-20.45,31.11-33.29,32.01-7.94.57-19.47-9.41-30.28-9.09-4.56.14-8.24,1.39-11.04,3.46-4.12,3.1-6.16,7.49-7.51,7.49-.67,0-1.02-.17-1.07-1.52-.02-.68.3-1.35,1.1-2.37,4.06-4.61,17.95-13.27,42.56-26.28,12.14-6.36,18.27-10.47,24.03-15.37,11.03-9.46,15.12-18.56,14.74-29.32-.4-11.46-6.77-18.69-18.25-17.69-11.32,1-22,10.25-21.6,21.72.21,5.9,4.45,11.06,10.37,10.62,2.7-.2,4.2-1.16,6.36-2.35.23.15.46.3.69.45-2.37,4.76-6.67,7.98-12.07,8.34-6.93.47-11.66-4.19-11.94-12.12-.43-12.34,11.04-27.84,30.81-29.59,15.88-1.43,26,6.46,26.42,18.43.56,15.77-10.37,28.53-32.82,40.92Z"/>
    <path class="cls-1" d="M165.99,339.34c-13.01,1.71-19.75-6.64-20.2-19.42-1.09-30.88,32.91-73,59.44-76.98,13.35-1.95,20.23,5.31,20.73,19.61.94,26.86-32.59,73.18-59.97,76.8ZM201.3,310.09c10.48-16.05,14.96-33.45,14.48-47.06-.42-11.94-5.9-18.06-15.36-16.68-8.28,1.2-20.36,10.18-30.32,26.38-9.79,16.01-14.65,32.32-14.15,46.62.43,12.28,4.87,17.98,12.81,16.92,10.31-1.37,22.05-10.3,32.53-26.18Z"/>
    <path class="cls-1" d="M273.81,290.52c-9.81,5.89-17.48,10.03-23.8,13.81-7.82,4.67-13.47,8.37-18.75,12.7.12.21.24.42.36.62,3.32-2.18,6.8-4.71,11.02-5.33,7.43-1.09,23.31,5.95,29.9,5.07,7.6-1.04,16.11-10.25,22.87-25.44.4,0,.79.01,1.19.02-9.11,20.88-20.45,31.66-33.29,33.45-7.94,1.11-19.47-7.88-30.28-6.29-4.56.67-8.24,2.39-11.04,4.83-4.12,3.65-6.16,8.34-7.51,8.54-.68.1-1.02-.02-1.07-1.36-.02-.67.29-1.39,1.1-2.53,4.06-5.14,17.95-16.03,42.56-31.04,12.14-7.29,18.27-11.66,24.03-16.81,11.03-9.89,15.12-18.99,14.74-29.76-.4-11.44-6.76-18.62-18.25-17.09-11.32,1.51-22.01,11.66-21.6,23.09.21,5.89,4.45,10.69,10.37,9.87,2.7-.37,4.2-1.42,6.36-2.73.23.14.46.28.69.41-2.37,4.88-6.67,8.34-12.07,9.1-6.93.97-11.66-3.24-11.94-11.14-.43-12.26,11.04-29.02,30.81-31.65,15.88-2.1,26,5.9,26.42,17.84.56,15.84-10.37,28.32-32.82,41.82Z"/>
    <path class="cls-1" d="M374.54,223.36c4.04,4.05,9.18,6.08,13.74,5.98,5.58-.12,9.57-2.01,13.35-4.89.18.23.35.45.53.68-3.37,5.22-12.78,11.57-19.37,11.79-5.07.16-8.51-1.4-14-3.66-9.35,10.15-18.7,20.48-28.05,30.95.12.1.23.21.35.31,4.83-2.43,8.51-3.9,14.42-4.29,13.52-.89,21.85,5.28,22.3,18.1.64,18.21-19.87,36.51-40.99,38.44-15.72,1.38-28.18-5.75-28.66-19.4-.33-9.25,5.67-17.23,14.8-18.16,3.89-.39,6.98.83,9.95,3.43-.05.23-.1.46-.15.69-1.53-.2-2.55-.1-3.39-.02-7.6.73-12.28,7.83-12,15.74.39,10.95,7.71,16.72,19.03,15.72,19.09-1.68,31.87-18.6,31.22-37.18-.33-9.44-5.44-15.13-15.24-14.45-6.59.46-12.76,3.51-18.05,7.03-.29-.2-.58-.4-.87-.6,13.69-15.73,27.38-31.17,41.07-46.22Z"/>
  </g>
</svg>