<?xml version="1.0" encoding="UTF-8"?>
<svg id="Capa_1" xmlns="http://www.w3.org/2000/svg" viewBox="0 0 878.15 287.83">
  <defs>
    <style>
      .cls-1 {
        fill: #f2e3c9;
      }
    </style>
  </defs>
  <path class="cls-1" d="M776.36,30.36s12.25-2.56,15.58-1.05c3.33,1.51,3.02,4.27,12.96,4.34,9.94.07,11.93.19,24.61,4.05,12.68,3.86,27.02,2.9,35.39,1.84,6.22-.79,4.66,2.51,3.97,7.28-.24,1.65,2.23,3.3,1.6,5.26-2.47,7.62-5.01,7.6-3.05,14.67.45,1.63,1.12,3.38,1.84,5.18.6,1.5,3,2.93,3.6,4.49.59,1.56-.62,3.24-.21,4.78.82,3.08,1.1,6.08.13,8.72-2.52,6.88-5.51,10.31-1.95,15.28,3.56,4.98,7.27,2.49,5.96,10.03s-3.99,8.22-2.09,14.3c1.9,6.08,5.13,6.11,2.43,13.99-2.7,7.88-11.01,7.95-9.35,15.5,1.66,7.56.83,6.31.53,8.84-.29,2.53-.47,2.73,1.2,5.41s1.66,8.08,1.52,11.45c-.15,3.36,3.04,20.28,1.8,21.11s-1.61,1.04-2.73,3.72c-1.12,2.68-.26,9.95-1.23,17.72-.97,7.76-2.15,12.31-4.62,16.21-2.47,3.89-4.86,5.29-6.09,5.38-1.24.08.47-4.01-4.53-2.8-5.01,1.21-13.07,6.97-18.75,7.35-5.69.38-7.88-2.7-15.31-2.44-7.43.25-10.73,2.96-15.67,3.29-4.94.33-7.99-.7-16.9-.1-8.9.6-11.52-1.46-16.3,1.35-4.78,2.81-7.18,7.69-9.95,7.13-2.77-.56-11.46-7.92-14.68-7.7s-5.92-6.8-12.6-6.35c-6.68.45-11.47-.72-16-1.53-4.53-.81-5.1-3.75-9.82-1.95-4.72,1.81-6,4.88-10.11,4.78-4.1-.1-7.64-2.84-11.33-2.22-3.68.62-5.44,5.02-7.13,4.76-1.69-.26-1.56-6.6-5.67-6.7-4.1-.1-7.21-1.94-16.34.73-9.13,2.66-7.28,2.54-13.95,2.99-6.68.45-9.54,2.13-12.88,2.36s-1.02-4.03-7.89-3.75c-6.87.28-10.31-.98-12.93-1.18-2.62-.2-2.8-2.79-7.67-3.21-4.87-.42-14.54-.14-18.62.14s-8.43-3.53-12.51-3.25-3.53,2.85-12.28,5.67c-8.75,2.83-9.1,3.22-10.65,5s-5.49-1.31-8.46-1.11c-2.97.2-3.16,2.82-7.14,4.58-3.98,1.76-6.95,1.96-13.35.9-6.4-1.06-13.97-2.78-18.13-3.62-4.15-.84-2.01-7.69-8.26-6.52-6.25,1.17-8.4,2.43-13.2,3.13s-9.84,3.27-13.79,5.4c-3.95,2.13-5.79-2.96-12.46-2.51-6.68.45-8.26-.93-13.05-.24-4.8.7-3.56,2.48-11.72,3.03-8.16.55-12.66.11-16.56,2.98-3.9,2.87.73,1.57-15.42,5.14-16.15,3.57-23.31.58-28.98-2.52-5.67-3.09-14.71-4.47-18.13-3.74-3.43.73-1.05,6.53-9.95,7.13-8.9.6-20.25-5.59-25.68-5.22-5.44.37,1.36,1.77-3.52,3.09-4.88,1.32-3.96-3.46-13.8-2.05-9.84,1.41-19.01,3.52-22.57,5.99-3.56,2.48-9.12,2.85-16.91,3.38-7.79.53-12.15,2.12-15.47-.07-3.31-2.2-17.62,1.19-20.28,3.04-2.67,1.86-1.41,4.01-5.3,4.27-3.89.26-8.45-2.78-15.64,1.05-7.19,3.84-8.05-1.57-17.28,1.54-9.23,3.11-7.55-1.48-17.9-.28-10.35,1.19-9.99-.82-16.42-.38-6.43.43-3.53-.76-8.28-1.18-4.75-.42-12.69,7.06-16.18,6.8-3.49-.26-3.3-4.74-8.74-4.38s-7.71,3.5-14.9.01c-7.19-3.49-14.08-2.53-15.56-2.43s-4.54,6.27-9.03,6.07c-4.48-.19-7.45,0-10.74,2.71-3.29,2.71-11.05-1.74-15.99-1.41-4.94.33-8.31-5.4-13.65-3.55s-16.38,7.56-16.38,7.56L0,8.45S11.6,3.7,16.12,4.39c4.52.69,1.91,2.6,11.66,3.44,9.74.83,5.01-3.07,13.2-3.13s8.06-.17,11.75,3.06c3.69,3.23,5.79,2.96,15.99,3.27,10.2.31,9.38-4.61,15.44-3.03,6.07,1.58,12.43-3.57,19.75-1.83,7.32,1.74,18.29-4.96,26.29-.53,8,4.43,18.2,1.01,23.31-.58,5.11-1.59,7.5-2.99,9.51-2.63,2.01.36,3.58,1.5,9.51,1.1,5.93-.4,10.17-3.91,14.91-3.49,4.75.42,6.5,4.28,10.29,5.27,3.79.99,3.48.01,6.53,1.05S215-.08,218.74.16c3.74.24,1.93,2.85,7.47,3.97,5.54,1.12,4.34,5.42,8.61,6.13,4.27.71,9.14-4.34,12.18-3.55s3.23-3.69,10.27-2.43c7.04,1.26,14.54-1.73,20.36-.13,5.82,1.59-.55,4.76,9.19,5.59,9.74.83,13.95,2.41,19.21,3.17,5.27.76,9.81-3.64,15-3.99,5.19-.35,12.59,4.37,16.1,1.15,3.51-3.22,8.4-2.43,9.64-.65,1.24,1.78.57,2.94,4.18,3.07,3.61.13,6.99-1.34,11.89-.43,4.9.91,4.54,1.06,9.13,2.74,4.58,1.68,5.67,5.76,5.08,8.97-.59,3.21,1.34,4.19,4.48,3.8,3.14-.4,21.7-9.66,27.31-9.29,5.61.37,7.94-1.09,11.08-1.49,3.14-.4,6.33-2.85,9.3,2.54,2.97,5.39,10.05,5.47,13.11,3.77,3.05-1.7-.93-2.73,8.16-3.34,9.09-.61,13.71-3.9,20.85-2.9,7.15,1.01,3.51-3.22,10.18-3.67,6.68-.45,16.34,2.06,21.86,3.74,5.51,1.68,17.79-4.18,24.06-2.37,6.27,1.81,13.12-1.63,18.36-1.24,5.24.39,13.81-2.42,18.27.26s5.65,3.72,9.18,3.48c3.52-.24,4.16-1.77,8.06-2.03,3.89-.26,6.7-2.87,16.13-1.09,9.43,1.79,4.53-4.59,11.21-5.04,6.68-.45,6.03,1.08,12.76,1.37,6.73.29,9.47-3.25,17.01-1.89s6.6,4.03,13.68,3.92c7.07-.1,8.78-2.45,12.63-.48,3.86,1.98,4.4-1.04,17.21,1.07,12.81,2.12,13.35-.9,16.59-2.61,3.24-1.71,4.71-5.66,7.03-6.19s-.51,1.65,4.35,1.94c4.86.29,4.67,1.05,4.63,2.42-.03,1.37-1.79,4.72,1.38,5.74s11.12-.87,16.56,2.48c5.44,3.36,11.59,2.45,12.45,4.13.86,1.68.09,4.96,2.92,6.51,2.84,1.55,13.25-2.38,19.15.45,5.9,2.83,9.36,2.6,9.36,2.6Z"/>
</svg>