<svg width="78" height="25" viewBox="0 0 78 25" fill="none" xmlns="http://www.w3.org/2000/svg">
<g id="Capa_1" clip-path="url(#clip0_516_57)">
<path id="Vector" d="M16.4847 2.63564C17.1897 1.23353 18.2391 0.497026 19.753 0.513957C21.2793 0.531947 22.1971 1.44623 22.8025 2.82505C23.8005 0.602846 26.1315 -0.00561637 27.8726 0.979563C29.0309 1.63459 29.5345 2.68326 29.5438 3.98378C29.5674 7.26207 29.553 10.5393 29.5582 13.8176C29.5582 14.2705 29.3444 14.4472 28.922 14.4409C28.2888 14.4303 27.6547 14.4387 27.0216 14.4377C26.3216 14.4366 26.2466 14.3636 26.2466 13.6589C26.2466 10.9975 26.2476 8.33719 26.2456 5.67583C26.2456 5.48324 26.2291 5.28853 26.2045 5.097C26.0883 4.19118 25.7533 3.81976 24.9814 3.73193C24.2404 3.64727 23.5384 4.09701 23.301 4.83139C23.1489 5.30229 23.1047 5.79647 23.1026 6.29064C23.0954 8.74036 23.0944 11.1901 23.0913 13.6398C23.0903 14.352 23.0101 14.4356 22.3307 14.4377C21.6976 14.4387 21.0635 14.425 20.4304 14.4419C19.9853 14.4536 19.7654 14.2874 19.7674 13.7996C19.7787 11.4377 19.7736 9.07687 19.7808 6.71498C19.7828 6.06207 19.7983 5.40917 19.6184 4.77531C19.419 4.07372 19.0356 3.74463 18.3892 3.69383C17.7314 3.64198 17.1887 3.97955 16.9215 4.62081C16.6871 5.18165 16.6337 5.78165 16.6306 6.38059C16.6173 8.81232 16.6193 11.2451 16.6152 13.6768C16.6142 14.3456 16.5268 14.4356 15.8742 14.4377C15.2236 14.4398 14.573 14.4303 13.9224 14.4409C13.4897 14.4483 13.3047 14.2493 13.3047 13.8038C13.3098 9.68004 13.3098 5.5552 13.3047 1.43141C13.3047 0.990145 13.4732 0.782739 13.9152 0.793321C14.5658 0.809194 15.2164 0.809194 15.867 0.793321C16.3099 0.781681 16.4908 0.995436 16.4847 1.43141C16.4785 1.83247 16.4836 2.23458 16.4836 2.63564H16.4847Z" fill="white"/>
<path id="Vector_2" d="M71.3269 2.90745C71.3834 2.78258 71.4358 2.65666 71.4965 2.53496C72.3197 0.848201 73.7226 0.161432 75.4976 0.62598C76.88 0.987883 77.6015 1.98364 77.8533 3.38787C77.9715 4.04924 77.9972 4.71802 77.9983 5.38786C78.0024 8.1381 78.0003 10.8873 77.9993 13.6375C77.9993 14.3529 77.9191 14.4365 77.2397 14.4386C76.6066 14.4407 75.9725 14.427 75.3394 14.4428C74.8563 14.4555 74.6713 14.2397 74.6733 13.7434C74.6857 11.2757 74.6785 8.80794 74.6795 6.34023C74.6795 5.84606 74.6703 5.35294 74.5541 4.86934C74.3845 4.16776 73.9899 3.76564 73.3979 3.68734C72.7976 3.60797 72.1738 3.94342 71.8665 4.53813C71.4954 5.2577 71.4081 6.04605 71.405 6.84393C71.3978 9.1 71.4029 11.3561 71.4019 13.6132C71.4019 14.3529 71.3186 14.4386 70.6115 14.4397C69.9784 14.4407 69.3443 14.4312 68.7111 14.4428C68.2856 14.4513 68.0801 14.2725 68.0801 13.8185C68.0852 9.67566 68.0852 5.53389 68.0801 1.39105C68.0801 0.964602 68.2692 0.780476 68.6721 0.783651C69.3227 0.788942 69.9733 0.792117 70.6239 0.781535C71.0638 0.774127 71.2395 0.981533 71.221 1.42915C71.2015 1.91592 71.2169 2.40375 71.2169 2.89052L71.3248 2.90851L71.3269 2.90745Z" fill="white"/>
<path id="Vector_3" d="M31.5056 24.6217C23.9431 24.5106 17.2656 21.9751 11.5233 16.8789C11.3805 16.753 11.2366 16.6249 11.1132 16.4799C10.994 16.3392 10.9457 16.1635 11.0649 15.9942C11.1821 15.8292 11.3537 15.8038 11.5244 15.8789C11.7124 15.9614 11.8902 16.0694 12.0701 16.171C17.2029 19.0926 22.6862 20.8312 28.5332 21.3561C35.106 21.9455 41.4258 20.8873 47.5206 18.318C47.7098 18.2376 47.8948 18.1477 48.1106 18.1614C48.3717 18.1783 48.569 18.2863 48.6851 18.5339C48.8085 18.7974 48.7252 19.0344 48.5371 19.2037C48.2678 19.4461 47.9729 19.6619 47.6738 19.8662C44.2749 22.1815 40.508 23.4947 36.5161 24.1868C34.8593 24.4735 33.1881 24.6196 31.5036 24.6217H31.5056Z" fill="white"/>
<path id="Vector_4" d="M49.6736 3.54039C48.3601 3.54039 47.1503 3.54039 45.9406 3.54039C45.1739 3.54039 45.0845 3.44833 45.0835 2.66527C45.0835 2.25998 45.0989 1.85363 45.0794 1.4494C45.0547 0.949933 45.2644 0.755225 45.7474 0.757341C47.8534 0.77004 49.9583 0.762632 52.0642 0.762632C52.5092 0.762632 52.9543 0.766865 53.3993 0.762632C53.7621 0.758399 53.9163 0.939351 53.9399 1.3076C54.0088 2.36791 53.8577 3.30971 53.1876 4.2187C51.835 6.05255 50.6037 7.98058 49.2779 9.93506C50.1813 10.0017 51.0303 10.006 51.8556 10.2176C52.4733 10.3763 53.0632 10.5964 53.6306 10.8906C54.0006 11.0821 54.2051 11.3763 54.203 11.8123C54.2 12.3763 54.2154 12.9403 54.1989 13.5044C54.1825 14.0493 53.9122 14.2049 53.4219 13.9721C50.7435 12.698 48.0702 12.6948 45.398 13.9911C44.9026 14.2313 44.6652 14.0747 44.6559 13.4948C44.6456 12.8779 44.6497 12.261 44.6446 11.644C44.6405 11.1298 44.8275 10.6885 45.1102 10.2737C46.544 8.16788 47.9705 6.05784 49.3992 3.9478C49.467 3.84833 49.5328 3.7478 49.6715 3.53828L49.6736 3.54039Z" fill="white"/>
<path id="Vector_5" d="M48.1073 16.6545C47.1278 16.6821 46.1606 16.8228 45.1884 16.9085C44.9951 16.9254 44.7382 17.0334 44.6477 16.7678C44.5563 16.5011 44.7855 16.3572 44.9705 16.2302C46.1781 15.4048 47.5389 15.099 48.9573 15.0122C49.8843 14.9551 50.8021 15.0292 51.7025 15.2948C52.166 15.4313 52.388 15.7265 52.3747 16.2175C52.3109 18.6186 51.5432 20.7286 49.9203 22.482C49.8494 22.5582 49.7692 22.6259 49.688 22.6905C49.539 22.8079 49.3745 22.9624 49.1844 22.8397C48.949 22.6884 49.0775 22.4651 49.1495 22.2725C49.614 21.0228 50.1094 19.7836 50.352 18.4609C50.3643 18.3921 50.3838 18.3233 50.3941 18.2545C50.5452 17.2143 50.3366 16.9053 49.3334 16.7508C48.9295 16.6884 48.5163 16.6842 48.1073 16.6545Z" fill="white"/>
<path id="Vector_6" d="M11.2699 11.8661C10.7406 11.1688 10.4888 10.4027 10.5278 9.51272C10.5617 8.75611 10.535 7.99739 10.535 7.23972C10.5319 7.23972 10.5289 7.23972 10.5258 7.23972C10.5258 6.30534 10.5566 5.36989 10.5196 4.43762C10.4394 2.44398 9.63879 1.29796 7.94294 0.74029C6.33856 0.21225 4.73212 0.269393 3.1596 0.871506C1.74947 1.41119 0.830629 2.44081 0.476042 3.96461C0.338318 4.55402 0.433902 4.70429 1.00535 4.77836C1.61689 4.85773 2.23356 4.88841 2.84304 4.97942C3.27163 5.04397 3.4628 4.87571 3.57791 4.46196C3.86364 3.43763 4.85134 2.85139 5.86063 3.07043C6.69623 3.25244 7.11968 3.82493 7.13201 4.91487C7.14331 5.90005 7.36635 5.78047 6.30669 5.89264C5.26863 6.00163 4.23056 6.11486 3.22538 6.42491C0.765878 7.18046 -0.469525 9.41854 0.164621 11.9857C0.487347 13.2926 1.27258 14.1794 2.5604 14.4682C4.31998 14.8619 5.93463 14.5466 7.24712 13.1783C7.52154 12.8915 7.67982 12.8228 7.89669 13.2323C8.11869 13.6503 8.46505 13.9762 8.8032 14.3042C9.11359 14.6058 9.39417 14.5942 9.70251 14.3116C10.1753 13.8778 10.6563 13.4534 11.1363 13.028C11.681 12.5445 11.7098 12.446 11.2699 11.8661ZM7.14537 8.1085C7.13098 8.31802 7.14229 8.53072 7.14229 8.7413C7.13098 9.54024 7.05698 10.3222 6.64278 11.0281C6.17 11.8323 5.42177 12.2196 4.68073 12.0556C4.28503 11.9677 3.99828 11.7402 3.80505 11.3868C3.21613 10.3095 3.64986 8.80691 4.72184 8.25241C5.39196 7.90533 6.12375 7.83125 6.86273 7.79845C7.09501 7.78787 7.16182 7.88734 7.1464 8.10956L7.14537 8.1085Z" fill="white"/>
<path id="Vector_7" d="M42.9217 11.8969C42.3574 11.1731 42.1169 10.3667 42.1529 9.44398C42.1816 8.70536 42.159 7.96357 42.159 7.22389C42.159 6.37839 42.1703 5.53184 42.157 4.68634C42.121 2.4091 41.1867 1.14774 39.1445 0.630279C37.7293 0.271551 36.3212 0.339275 34.947 0.828161C33.431 1.36784 32.4413 2.42604 32.0795 4.06624C31.988 4.48105 32.1052 4.71809 32.5286 4.76359C33.1751 4.83343 33.8247 4.88316 34.4671 4.9784C34.8905 5.04189 35.0961 4.8874 35.2112 4.47047C35.4866 3.46942 36.3602 2.91281 37.3829 3.05037C38.2596 3.16889 38.7303 3.79851 38.7673 4.90539C38.7725 5.04613 38.7488 5.1911 38.7725 5.32761C38.8434 5.73607 38.6378 5.84295 38.2904 5.86623C37.4024 5.92654 36.5185 6.0366 35.6449 6.21649C33.2193 6.71807 31.8287 8.09584 31.6663 10.3138C31.4567 13.1762 33.1135 14.6567 35.4147 14.6175C36.8156 14.5942 37.9883 14.1265 38.9575 13.1053C39.1795 12.8715 39.3008 12.8366 39.4755 13.153C39.6954 13.5519 39.9966 13.8937 40.3296 14.2027C40.8065 14.644 40.9421 14.6514 41.418 14.2302C41.8856 13.8175 42.3481 13.3974 42.8148 12.9836C43.2978 12.5561 43.3317 12.4228 42.9206 11.8948L42.9217 11.8969ZM38.7725 8.27997C38.7468 8.46939 38.7684 8.66621 38.7684 8.77097C38.7375 9.6006 38.681 10.3339 38.2945 10.9921C38.0499 11.408 37.7436 11.7498 37.3038 11.9498C36.4147 12.353 35.5606 11.9498 35.2821 10.9921C34.9141 9.73181 35.4856 8.55722 36.683 8.10643C37.202 7.91066 37.7457 7.86516 38.2884 7.79955C38.6707 7.75405 38.829 7.87257 38.7725 8.27891V8.27997Z" fill="white"/>
<path id="Vector_8" d="M65.3089 3.30856C63.3859 -0.315753 58.434 -0.524217 56.4627 3.03978C54.7946 6.0567 54.8275 9.25562 56.5162 12.263C58.211 15.281 62.3006 15.5783 64.5545 12.9709C65.867 11.4524 66.272 9.60588 66.2987 7.63552C66.2627 5.90432 65.942 4.50009 65.3089 3.30856ZM62.4476 10.462C62.3808 10.6969 62.3037 10.9339 62.1927 11.1487C61.8782 11.7583 61.3961 12.0884 60.7013 12.062C60.0518 12.0366 59.6756 11.6376 59.4146 11.0884C59.1792 10.5953 59.061 10.062 59.0086 9.51699C58.8688 8.06092 58.8297 6.60484 59.0456 5.15194C59.097 4.80274 59.2008 4.46835 59.3498 4.14983C59.6859 3.43237 60.2121 3.10327 60.9418 3.15301C61.6459 3.20063 62.093 3.58264 62.3304 4.35089C62.6675 5.43871 62.6778 6.56569 62.7086 7.71912C62.6819 8.62176 62.7055 9.55721 62.4465 10.463L62.4476 10.462Z" fill="white"/>
</g>
<defs>
<clipPath id="clip0_516_57">
<rect width="78" height="24.2432" fill="white" transform="translate(0 0.378418)"/>
</clipPath>
</defs>
</svg>
