<svg width="23" height="39" viewBox="0 0 23 39" fill="none" xmlns="http://www.w3.org/2000/svg">
<g id="Capa_1" clip-path="url(#clip0_516_72)">
<path id="Vector" d="M3.55625 1.80965C3.06191 1.81983 2.56715 1.80922 2.07239 1.81558C2.0185 1.81643 1.95867 1.83849 1.92006 1.7774C1.91879 1.24751 1.91157 0.717202 1.92006 0.187314C1.92261 0.0345844 1.87551 0.000220197 1.73039 0.00276569C1.22926 0.0112507 0.726865 0.0167659 0.22574 0.000220197C0.0326729 -0.00614355 0 0.0519787 0 0.231861C0.00466755 11.1219 0.00424323 22.012 0.00466755 32.9025C0.00466755 32.9797 0.0110324 33.0573 0.0148513 33.1345C0.599144 33.1808 1.18429 33.1447 1.769 33.1532C1.85556 33.1545 1.8929 33.0959 1.89333 33.0136C1.8946 32.611 1.92261 32.2059 1.88187 31.8071C1.8615 31.6064 1.92982 31.6242 2.06136 31.6259C2.56291 31.6318 3.06446 31.6212 3.56601 31.6323C3.73022 31.6357 3.76799 31.5805 3.76417 31.4265C3.75399 31.0243 3.76077 30.6213 3.76077 30.2187C3.76077 29.7915 3.73319 29.7652 3.29062 29.7635C3.25541 29.7635 3.22019 29.7635 3.18454 29.7635C2.75428 29.7647 2.32402 29.7579 1.89333 29.7736C1.86745 29.7868 1.85556 29.8076 1.85853 29.8373C1.85684 29.8873 1.92388 29.8716 1.93703 29.9285C1.84029 29.9047 1.82968 29.8424 1.83859 29.7719C1.84156 29.7473 1.84326 29.7232 1.84496 29.6985V29.7694C1.85047 29.7745 1.85556 29.7796 1.86108 29.7842V4.0535C1.86702 3.97332 1.87466 3.89314 1.88357 3.81253C1.90224 3.63943 1.9731 3.62925 2.1127 3.6318C2.60025 3.64113 3.0878 3.62968 3.57535 3.63859C3.72598 3.64113 3.76672 3.59065 3.76417 3.44513C3.75611 2.96488 3.75356 2.4842 3.76502 2.00395C3.76926 1.8351 3.70604 1.80668 3.55668 1.80965H3.55625Z" fill="white"/>
<path id="Vector_2" d="M23.0005 22.1277C22.9865 21.6334 22.9878 21.1383 23.0001 20.6441C23.0044 20.4655 22.9704 20.4018 22.7727 20.4057C22.1307 20.418 21.4878 20.4057 20.8454 20.4031C20.8441 19.9377 20.8399 19.4723 20.8446 19.0073C20.8458 18.8851 20.8225 18.8334 20.6837 18.8355C20.161 18.844 19.6378 18.8419 19.115 18.8364C18.9954 18.8351 18.9572 18.8695 18.9593 18.9916C18.9661 19.3942 18.9508 19.7973 18.9657 20.1995C18.9725 20.3844 18.9096 20.4163 18.7395 20.4158C16.9943 20.4095 15.2486 20.4146 13.5034 20.4086C13.3438 20.4082 13.3005 20.4489 13.301 20.608C13.3065 22.339 13.3035 24.0699 13.3069 25.8008C13.3069 25.8581 13.2534 25.9476 13.3638 25.9739C13.8772 26.0168 14.3915 25.9905 14.9053 25.9879C15.0861 25.9871 15.1238 26.0401 15.1221 26.2128C15.1137 27.2785 15.1238 28.3442 15.1128 29.4099C15.1107 29.6123 15.1739 29.6535 15.3619 29.6479C15.8414 29.6344 16.3221 29.6522 16.8016 29.639C16.9769 29.6344 17.0091 29.6946 17.0078 29.8545C17.0015 30.9343 17.004 32.0144 17.0053 33.0941C17.0053 33.1781 17.0163 33.2621 17.0223 33.3461C17.573 33.3453 18.1238 33.3499 18.6742 33.3398C18.8354 33.3368 18.888 33.3728 18.8867 33.5468C18.8782 34.7092 18.8825 35.8721 18.8829 37.0345C17.6545 37.0345 16.4261 37.0345 15.1977 37.0345C15.1998 35.8513 15.1998 34.6677 15.2079 33.4844C15.2087 33.3448 15.1421 33.3423 15.0398 33.3427C14.5175 33.3453 13.9951 33.3376 13.4728 33.3491C13.3103 33.3525 13.2738 33.3028 13.2751 33.148C13.2819 32.0683 13.2793 30.9886 13.278 29.9084C13.278 29.8261 13.3031 29.7379 13.2411 29.6641C13.2246 29.6513 13.2106 29.631 13.1885 29.6301C12.6114 29.6102 12.0339 29.5953 11.4573 29.6386C11.4441 29.6395 11.4318 29.6505 11.4195 29.6568C11.4047 29.6573 11.3902 29.6577 11.3754 29.6585C11.3728 29.6594 11.3707 29.6598 11.3682 29.6607C11.3682 29.6607 11.369 29.6598 11.3694 29.6594L11.3754 29.6585C11.3754 28.5067 11.3737 27.3549 11.3796 26.203C11.3805 26.0571 11.3448 26.0096 11.1933 26.0125C10.6918 26.0219 10.1898 26.0087 9.68827 26.0202C9.51514 26.024 9.46295 25.9799 9.46422 25.8008C9.47271 24.7126 9.4655 23.6244 9.47186 22.5362C9.47271 22.3878 9.43325 22.3441 9.28473 22.3466C8.77597 22.3551 8.26721 22.3572 7.75845 22.3466C7.59551 22.3432 7.54459 22.3805 7.54586 22.5536C7.55519 23.6206 7.54671 24.6876 7.55519 25.7546C7.55647 25.9324 7.50428 25.979 7.33073 25.9748C6.85039 25.9629 6.36964 25.9782 5.8893 25.9663C5.72551 25.9625 5.6886 26.0138 5.69157 26.1691C5.70133 26.6706 5.70005 27.1724 5.69284 27.6739C5.69072 27.8148 5.73527 27.8542 5.87445 27.8517C6.376 27.8436 6.87797 27.8411 7.37952 27.8521C7.54756 27.8559 7.57683 27.7931 7.57386 27.6434C7.56495 27.1983 7.58108 26.7529 7.56623 26.3082C7.55986 26.1114 7.60017 26.0384 7.8153 26.0465C8.28121 26.0647 8.74839 26.0622 9.2143 26.0473C9.41373 26.041 9.47313 26.0898 9.47101 26.2985C9.45913 27.3723 9.46422 28.4465 9.46719 29.5207C9.46719 29.5975 9.41203 29.7171 9.57582 29.715C10.1338 29.7082 10.6914 29.7056 11.2493 29.7018C11.2744 29.7027 11.2994 29.7035 11.3245 29.7044C11.3906 29.7769 11.3631 29.866 11.3631 29.9479C11.3652 31.0212 11.3686 32.095 11.3605 33.1684C11.3592 33.3415 11.4106 33.3788 11.5748 33.3754C12.0759 33.3644 12.5779 33.3792 13.079 33.3669C13.2492 33.3627 13.2899 33.4132 13.2891 33.5782C13.2819 34.666 13.2891 35.7533 13.2819 36.8411C13.2806 37.0006 13.3226 37.0443 13.4813 37.0418C14.0512 37.0333 14.6214 37.0396 15.1917 37.0405C15.1934 37.6756 15.1947 38.3107 15.1964 38.9454C15.2668 39.0162 15.3564 38.9861 15.4374 38.9869C16.5275 38.9963 17.6176 38.9734 18.7077 39.0001C18.773 39.0018 18.8333 38.992 18.8829 38.9454C18.885 38.3103 18.8867 37.6756 18.8889 37.0405C19.4681 37.0396 20.0473 37.0392 20.6265 37.0375C20.7113 37.0375 20.8259 37.0685 20.7898 36.9102C20.7898 36.8958 20.7898 36.8818 20.7902 36.8674C20.7932 35.7368 20.7945 34.6066 20.8017 33.4759C20.8026 33.3538 20.7504 33.341 20.6506 33.3415C20.1631 33.3449 19.6747 33.3321 19.1876 33.3482C18.9805 33.355 18.9147 33.3113 18.9177 33.0882C18.9313 32 18.9211 30.9118 18.927 29.8232C18.9279 29.6742 18.8863 29.6327 18.7382 29.6352C18.2507 29.6437 17.7623 29.625 17.2756 29.6428C17.063 29.6509 17.0231 29.5822 17.0248 29.3853C17.0346 28.3323 17.0303 27.2794 17.0295 26.2264C17.0295 25.8993 17.0545 25.9536 16.7643 25.9515C16.3192 25.9481 15.8736 25.9421 15.4285 25.954C15.2584 25.9587 15.2168 25.9073 15.218 25.741C15.2257 24.7025 15.2291 23.6635 15.2163 22.6245C15.2138 22.4009 15.2762 22.3496 15.4943 22.3504C17.9184 22.3585 20.343 22.3534 22.7672 22.3602C22.9543 22.3606 23.0056 22.3144 23.0005 22.1264V22.1277Z" fill="white"/>
<path id="Vector_3" d="M3.78906 27.8843C3.78906 27.8843 3.79082 27.8843 3.79199 27.8843V27.8809L3.78906 27.8843Z" fill="white"/>
<path id="Vector_4" d="M5.67968 27.9772C5.67968 27.8953 5.64743 27.8644 5.56638 27.8661C4.97445 27.8801 4.38252 27.8461 3.79102 27.8835C3.79186 28.4545 3.79441 29.0251 3.79271 29.5962C3.79271 29.692 3.7978 29.7506 3.92383 29.7489C4.46739 29.7417 5.01094 29.7438 5.55493 29.7472C5.64403 29.7476 5.68095 29.7234 5.68053 29.6293C5.67756 29.0786 5.67798 28.5279 5.67968 27.9772Z" fill="white"/>
<path id="Vector_5" d="M11.3744 12.988C11.3735 13.0996 11.3926 13.1518 11.5229 13.1501C12.0525 13.1433 12.582 13.1441 13.1116 13.1501C13.2393 13.1518 13.2647 13.0996 13.2618 12.9872C13.2558 12.733 13.2601 12.4789 13.2601 12.2248C13.2601 11.9635 13.255 11.7021 13.2622 11.4412C13.266 11.3114 13.2401 11.2524 13.0895 11.255C12.5744 11.2643 12.0588 11.2622 11.5433 11.2567C11.4185 11.2554 11.371 11.2847 11.3731 11.4204C11.3812 11.9427 11.3791 12.4653 11.3744 12.9876V12.988Z" fill="white"/>
<path id="Vector_6" d="M17.2236 18.8315C17.7464 18.8264 18.2696 18.8268 18.7923 18.8319C18.915 18.8332 18.9502 18.7887 18.9472 18.6711C18.9404 18.4098 18.9451 18.1485 18.9451 17.8871H18.9464C18.9464 17.6326 18.9417 17.3784 18.9485 17.1243C18.9514 17.0043 18.9281 16.9457 18.7881 16.9474C18.2653 16.9542 17.7421 16.9521 17.2194 16.9466C17.0955 16.9453 17.0641 16.9924 17.0649 17.1086C17.0696 17.6313 17.07 18.1544 17.0645 18.6771C17.0632 18.7997 17.1065 18.8328 17.224 18.8319L17.2236 18.8315Z" fill="white"/>
<path id="Vector_7" d="M9.48722 11.1167C9.48637 11.2215 9.52456 11.2478 9.62343 11.247C10.1534 11.2427 10.6834 11.241 11.2134 11.2474C11.3394 11.2491 11.367 11.2033 11.3661 11.0879C11.361 10.5652 11.3589 10.0421 11.3661 9.51943C11.3678 9.39004 11.3177 9.36543 11.2062 9.36755C10.952 9.37264 10.6974 9.36925 10.4428 9.36925C10.1742 9.36925 9.9056 9.37264 9.637 9.36798C9.53474 9.36628 9.48467 9.38452 9.48637 9.50586C9.49273 10.0425 9.49104 10.5796 9.48679 11.1167H9.48722Z" fill="white"/>
<path id="Vector_8" d="M15.1562 16.8054C15.1571 16.8423 15.1579 16.8796 15.1588 16.9166C15.7579 16.9594 16.3575 16.9238 16.9571 16.9361C17.0534 16.9382 17.053 16.8758 17.0525 16.8092C17.0525 16.2658 17.0509 15.7219 17.0525 15.1784C17.0525 15.0885 17.022 15.0541 16.9295 15.0549C16.3651 15.0613 15.8008 15.0639 15.236 15.0673C15.222 15.0706 15.208 15.0745 15.1936 15.0779C15.1431 15.1402 15.1707 15.2136 15.1698 15.2811C15.163 15.7889 15.1601 16.2972 15.1562 16.805V16.8054ZM15.236 16.7303C15.2407 16.7324 15.2458 16.7337 15.2496 16.7324C15.27 16.7256 15.2526 16.7439 15.236 16.7409V16.7307V16.7303Z" fill="white"/>
<path id="Vector_9" d="M5.69338 7.3213C5.69253 7.42312 5.72733 7.45494 5.82874 7.45409C6.3583 7.44985 6.88828 7.44985 7.41783 7.45409C7.53664 7.45494 7.57695 7.41548 7.57313 7.295C7.56507 7.03408 7.57059 6.77232 7.57059 6.51141C7.57059 6.25007 7.56507 5.98873 7.57313 5.72782C7.57695 5.60436 7.53113 5.57127 7.41316 5.57254C6.8904 5.57764 6.36806 5.57679 5.84529 5.57254C5.74133 5.5717 5.69211 5.59376 5.69338 5.7117C5.69848 6.24837 5.69763 6.78505 5.69338 7.32173V7.3213Z" fill="white"/>
<path id="Vector_10" d="M7.584 9.22198C7.58315 9.32252 7.6137 9.35731 7.71597 9.35477C7.98414 9.34883 8.25231 9.35265 8.52048 9.35265C8.78865 9.35265 9.05683 9.34798 9.325 9.35477C9.43278 9.35731 9.47266 9.32889 9.47181 9.21434C9.46672 8.6853 9.46672 8.15584 9.47181 7.6268C9.47266 7.51055 9.44126 7.46686 9.31736 7.46855C8.78823 7.47449 8.2591 7.4728 7.72954 7.46855C7.62007 7.4677 7.58315 7.50122 7.584 7.61322C7.58909 8.14947 7.58824 8.68573 7.584 9.22198Z" fill="white"/>
<path id="Vector_11" d="M13.2754 14.8848C13.2741 15.0086 13.3174 15.0417 13.4337 15.0388C13.6946 15.032 13.9565 15.0366 14.2174 15.0366V15.0345C14.4788 15.0345 14.7402 15.0286 15.0016 15.0371C15.1242 15.0413 15.1564 15.0006 15.1552 14.8809C15.1497 14.3583 15.1501 13.8356 15.156 13.3133C15.1573 13.1916 15.1187 13.1568 14.999 13.1581C14.4763 13.1636 13.9535 13.1631 13.4311 13.1568C13.3068 13.1551 13.2746 13.2022 13.2754 13.3167C13.2797 13.8394 13.2814 14.3621 13.2754 14.8843V14.8848Z" fill="white"/>
<path id="Vector_12" d="M5.67993 3.82597C5.67993 3.73858 5.67144 3.67876 5.5573 3.68046C5.06423 3.68894 4.57117 3.69064 4.07853 3.69488C4.06453 3.69488 4.05095 3.69488 4.03695 3.69488C3.99409 3.67494 3.95166 3.67706 3.90923 3.69488C3.87952 3.68088 3.85024 3.67579 3.82521 3.70421C3.76283 3.76234 3.79593 3.83743 3.79551 3.90319C3.79254 4.45301 3.79381 5.00284 3.79381 5.55267C4.37853 5.55606 4.96282 5.55776 5.54754 5.56497C5.64853 5.56624 5.68162 5.53527 5.6812 5.43303C5.67738 4.8972 5.67865 4.36138 5.68035 3.82555L5.67993 3.82597ZM3.97287 5.11527C3.97287 5.03763 3.97287 4.95787 3.97287 4.87642C3.97287 4.87302 3.97287 4.86963 3.9733 4.86623C3.97415 4.92478 3.97584 4.9829 3.97797 5.04145C3.97669 5.06605 3.975 5.09066 3.97245 5.11527H3.97287ZM5.42406 3.73561C5.43976 3.73476 5.45419 3.7373 5.46607 3.74664C5.45291 3.7424 5.43933 3.73858 5.42406 3.73561Z" fill="white"/>
<path id="Vector_13" d="M3.7932 5.55472V5.55249C3.7932 5.55249 3.79156 5.55249 3.79102 5.55249L3.7932 5.55472Z" fill="white"/>
</g>
<defs>
<clipPath id="clip0_516_72">
<rect width="23" height="39" fill="white"/>
</clipPath>
</defs>
</svg>
