<svg width="55" height="53" viewBox="0 0 55 53" fill="none" xmlns="http://www.w3.org/2000/svg">
<g id="icons" clip-path="url(#clip0_520_223)">
<path id="Vector" d="M30.1475 35.7916C28.4009 36.8914 26.4886 37.6819 24.4935 38.1458C27.4517 34.8327 29.4364 28.1102 29.4364 20.1744C29.4364 18.2292 29.3156 16.3629 29.0913 14.5964H37.9312C38.4938 16.3561 38.7975 18.2326 38.7975 20.1744C38.7975 21.9066 38.5559 23.6216 38.083 25.2713C37.9519 25.7284 38.2177 26.2027 38.6733 26.3333C39.1289 26.4639 39.6087 26.1993 39.7399 25.7456C40.2576 23.9447 40.5234 22.0682 40.5234 20.1779C40.5234 9.04928 31.4315 0 20.2617 0C9.08843 0 0 9.04928 0 20.1744C0 31.2996 9.08843 40.3489 20.2583 40.3489C24.0966 40.3489 27.8348 39.2731 31.0656 37.2419C31.4695 36.9876 31.5903 36.4583 31.3349 36.0562C31.0795 35.6541 30.5479 35.5373 30.144 35.7881L30.1475 35.7916ZM20.2617 38.6339C17.5314 38.6339 14.6595 34.3584 13.4307 27.4744H27.0927C25.8639 34.3584 22.992 38.6339 20.2617 38.6339ZM27.7071 20.1744C27.7071 22.161 27.5794 24.0237 27.355 25.7525H13.1615C12.9371 24.0237 12.8094 22.1575 12.8094 20.1744C12.8094 18.1914 12.9371 16.3251 13.1615 14.5964H27.355C27.5794 16.3251 27.7071 18.1914 27.7071 20.1744ZM1.72587 20.1744C1.72587 18.2292 2.03307 16.3561 2.59226 14.5964H11.4287C11.2043 16.3629 11.0835 18.2326 11.0835 20.1744C11.0835 22.1163 11.2043 23.9859 11.4287 25.7525H2.59226C2.02962 23.9928 1.72587 22.1163 1.72587 20.1744ZM20.2617 1.71844C22.992 1.71844 25.8639 5.99391 27.0927 12.878H13.4307C14.6595 5.99391 17.5314 1.71844 20.2617 1.71844ZM37.2822 12.878H28.8324C28.035 8.221 26.4852 4.44388 24.4935 2.20991C30.2476 3.55373 34.9799 7.57487 37.2822 12.878ZM16.023 2.20991C14.0313 4.44388 12.4849 8.221 11.6841 12.878H3.24118C5.54349 7.57487 10.2724 3.55716 16.0264 2.20991H16.023ZM3.23773 27.4744H11.6841C12.4815 32.1313 14.0313 35.9084 16.023 38.1424C10.2689 36.7986 5.54004 32.7775 3.23773 27.4744Z" fill="white"/>
<path id="Vector_2" d="M54.8041 47.2193L47.3207 38.1838L51.5595 36.2419C52.0634 35.9979 52.3603 35.5718 52.3499 35.094C52.3465 34.8569 52.2464 34.2726 51.4594 33.9324L33.1479 25.8832C32.6681 25.677 32.1711 25.7217 31.8155 26.0069C31.46 26.2922 31.3116 26.7699 31.4151 27.2855L35.5054 46.7828C35.678 47.6283 36.2303 47.8448 36.4616 47.8998C36.9276 48.0064 37.4108 47.8105 37.7629 47.3568L40.5553 43.6278L48.0525 52.6805C48.2216 52.8867 48.4702 52.9933 48.7187 52.9933C48.912 52.9933 49.1053 52.928 49.2675 52.7974C49.6369 52.4949 49.6886 51.9553 49.3849 51.5876L41.187 41.6894C41.0179 41.4866 40.7693 41.3698 40.5001 41.3766C40.2343 41.3835 39.9892 41.5107 39.8305 41.7203L37 45.4974L33.2929 27.8216L49.8854 35.1146L45.588 37.084C45.3463 37.194 45.1669 37.4139 45.1082 37.6717C45.0495 37.9329 45.1116 38.2044 45.2842 38.4106L53.4821 48.3088C53.7858 48.6731 54.3278 48.7247 54.6971 48.4257C55.0664 48.1232 55.1182 47.5836 54.8145 47.2159L54.8041 47.2193Z" fill="white"/>
</g>
<defs>
<clipPath id="clip0_520_223">
<rect width="55" height="53" fill="white"/>
</clipPath>
</defs>
</svg>
