<svg width="53" height="46" viewBox="0 0 53 46" fill="none" xmlns="http://www.w3.org/2000/svg">
<g id="icons" clip-path="url(#clip0_516_164)">
<path id="Vector" d="M20.0533 21.5618C20.3976 21.8955 20.8406 22.0624 21.2836 22.0624C21.7267 22.0624 22.1548 21.9016 22.496 21.577C25.4117 18.8161 32.3117 12.1082 33.3774 9.41408C34.0479 7.71813 34.027 5.86138 33.3205 4.1806C32.6141 2.49982 31.2999 1.20131 29.6265 0.521713C26.5552 -0.728254 23.1037 0.482272 21.4004 3.22795C19.73 0.500476 16.3264 -0.737356 13.261 0.451933C11.5787 1.10422 10.2466 2.38149 9.51019 4.05014C8.77379 5.71878 8.72589 7.57553 9.36949 9.28362C10.3933 11.9929 17.1825 18.7737 20.0563 21.5648L20.0533 21.5618ZM10.8752 4.66905C11.447 3.37055 12.4827 2.37543 13.7939 1.86876C16.497 0.822069 19.5384 2.19643 20.5742 4.93907C20.6041 5.01795 20.637 5.12717 20.673 5.26977C20.7598 5.6035 21.0561 5.83711 21.3944 5.83711C21.7327 5.83711 22.032 5.60653 22.1188 5.2728C22.1637 5.1029 22.2026 4.97548 22.2386 4.8875C23.3162 2.16305 26.3786 0.837238 29.0668 1.92944C30.3689 2.45734 31.3897 3.47066 31.9405 4.77828C32.4913 6.08589 32.5093 7.53306 31.9854 8.84977C31.2071 10.8188 26.0433 16.1433 21.4722 20.4696C21.3615 20.5758 21.1968 20.5758 21.0861 20.4696C16.5838 16.0978 11.5098 10.7217 10.7615 8.74358C10.2616 7.41473 10.3005 5.9706 10.8722 4.67209L10.8752 4.66905Z" fill="white"/>
<path id="Vector_2" d="M52.9215 23.5674C52.7119 22.909 52.1342 22.4843 51.4516 22.4843H51.4487L43.007 22.5055L40.4176 14.3625C40.208 13.7041 39.6303 13.2764 38.9478 13.2764C38.2653 13.2764 37.6875 13.7041 37.478 14.3625L34.8886 22.5055L26.4469 22.4843H26.4439C25.7614 22.4843 25.1866 22.909 24.9741 23.5674C24.7616 24.2257 24.9831 24.9144 25.5399 25.321L32.38 30.333L29.7517 38.4638C29.5392 39.1222 29.7577 39.8109 30.3115 40.2174C30.8653 40.6239 31.5778 40.6239 32.1316 40.2174L38.9478 35.172L45.764 40.2174C46.0394 40.4207 46.3567 40.5238 46.674 40.5238C46.9913 40.5238 47.3056 40.4237 47.581 40.2204C48.1348 39.8139 48.3534 39.1252 48.1408 38.4668L45.5125 30.336L52.3527 25.324C52.9065 24.9174 53.128 24.2287 52.9155 23.5704L52.9215 23.5674ZM51.4786 24.0892L44.1954 29.4258C43.932 29.62 43.8212 29.9628 43.923 30.2753L46.7189 38.931C46.7249 38.9523 46.7309 38.9644 46.701 38.9856C46.671 39.0069 46.662 38.9978 46.6441 38.9856L39.3848 33.6156C39.1214 33.4215 38.7652 33.4215 38.5017 33.6156L31.2425 38.9856C31.2245 39.0008 31.2126 39.0069 31.1856 38.9856C31.1587 38.9644 31.1617 38.9523 31.1677 38.931L33.9666 30.2753C34.0684 29.9628 33.9576 29.617 33.6942 29.4258L26.411 24.0892C26.393 24.0771 26.381 24.068 26.393 24.0346C26.405 24.0012 26.417 24.0012 26.4379 24.0012L35.4244 24.0224C35.7477 24.0224 36.0381 23.8101 36.1369 23.4976L38.8939 14.8297C38.8999 14.8085 38.9059 14.7964 38.9388 14.7964C38.9717 14.7964 38.9777 14.8085 38.9837 14.8297L41.7407 23.4976C41.8395 23.8101 42.1359 24.0194 42.4562 24.0224L51.4427 24.0012C51.4636 24.0012 51.4786 24.0012 51.4876 24.0346C51.4995 24.068 51.4876 24.0771 51.4696 24.0892H51.4786Z" fill="white"/>
<path id="Vector_3" d="M23.0141 27.1746H13.0158V21.3404C13.0158 19.3047 11.8453 17.4237 10.0312 16.5438C9.37566 16.2253 8.6183 16.2708 8.00463 16.6652C7.39096 17.0566 7.02575 17.7301 7.02575 18.4643V22.3477C7.02575 26.3251 4.2418 29.6837 0.948941 29.6837H0.748376C0.335272 29.6837 0 30.0235 0 30.4421C0 30.8608 0.335272 31.2006 0.748376 31.2006H0.948941C5.12488 31.2006 8.52251 27.2292 8.52251 22.3477V18.4643C8.52251 18.1609 8.72008 18.0031 8.8039 17.9485C8.88771 17.8939 9.11522 17.7817 9.38763 17.9121C10.6838 18.5401 11.519 19.8842 11.519 21.3404V27.9331C11.519 28.3518 11.8543 28.6916 12.2674 28.6916H23.0141C23.7774 28.6916 24.4001 29.3226 24.4001 30.0963C24.4001 30.8699 23.7834 31.4949 23.023 31.501H19.1794C18.7663 31.501 18.431 31.8408 18.431 32.2594C18.431 32.6781 18.7663 33.0179 19.1794 33.0179H21.9873C22.7506 33.0179 23.3733 33.649 23.3733 34.4226C23.3733 35.1963 22.7536 35.8243 21.9903 35.8273C21.9903 35.8273 21.9903 35.8273 21.9873 35.8273H20.9875C20.9875 35.8273 20.9785 35.8273 20.9725 35.8273H20.9665H18.1556C17.7425 35.8273 17.4072 36.1671 17.4072 36.5858C17.4072 37.0045 17.7425 37.3443 18.1556 37.3443H20.9815C21.7418 37.3473 22.3615 37.9753 22.3615 38.749C22.3615 39.5226 21.7388 40.1537 20.9755 40.1537H17.1408C16.7277 40.1537 16.3924 40.4935 16.3924 40.9121C16.3924 41.3308 16.7277 41.6706 17.1408 41.6706H19.9337C20.6971 41.6706 21.3197 42.3017 21.3197 43.0753C21.3197 43.8489 20.6971 44.48 19.9337 44.48H0.748376C0.335272 44.48 0 44.8198 0 45.2385C0 45.6571 0.335272 45.9969 0.748376 45.9969H19.9337C21.5233 45.9969 22.8165 44.6863 22.8165 43.0753C22.8165 42.4321 22.6099 41.8405 22.2627 41.3581C23.2056 40.8788 23.8582 39.8897 23.8582 38.7459C23.8582 38.0997 23.6487 37.5051 23.2984 37.0227C24.2324 36.5372 24.876 35.5543 24.876 34.4226C24.876 33.7794 24.6665 33.1848 24.3162 32.7024C25.2532 32.22 25.8998 31.234 25.8998 30.0963C25.8998 28.4853 24.6066 27.1746 23.0171 27.1746H23.0141Z" fill="white"/>
</g>
<defs>
<clipPath id="clip0_516_164">
<rect width="53" height="46" fill="white"/>
</clipPath>
</defs>
</svg>
