<svg width="48" height="46" viewBox="0 0 48 46" fill="none" xmlns="http://www.w3.org/2000/svg">
<g id="icons" clip-path="url(#clip0_516_92)">
<path id="Vector" d="M36.2285 9.36901C38.8831 9.36901 41.043 7.2681 41.043 4.68597C41.043 2.10384 38.8831 0.00292969 36.2285 0.00292969C33.5739 0.00292969 31.4141 2.10384 31.4141 4.68597C31.4141 7.2681 33.5739 9.36901 36.2285 9.36901ZM36.2285 1.46711C38.0536 1.46711 39.5347 2.91076 39.5347 4.68303C39.5347 6.45531 38.0506 7.89896 36.2285 7.89896C34.4065 7.89896 32.9224 6.45531 32.9224 4.68303C32.9224 2.91076 34.4065 1.46711 36.2285 1.46711Z" fill="white"/>
<path id="Vector_2" d="M47.2467 44.5329H40.7973L41.8832 30.2608C44.1396 29.9292 45.8772 28.0308 45.8772 25.742V15.1054C45.8772 12.9429 44.0672 11.1824 41.844 11.1824H30.6947C28.4715 11.1824 26.6615 12.9429 26.6615 15.1054V17.9693H15.669V15.6718C15.669 15.3989 15.5152 15.1495 15.2678 15.0233C15.0205 14.8971 14.7218 14.9118 14.4896 15.0673L6.87568 20.1435C6.67056 20.2814 6.54688 20.5074 6.54688 20.748C6.54688 20.9886 6.67056 21.2175 6.87568 21.3524L14.4896 26.4257C14.6163 26.5108 14.7671 26.5548 14.9149 26.5548C15.0356 26.5548 15.1562 26.5255 15.2678 26.4697C15.5152 26.3436 15.669 26.0942 15.669 25.8213V22.7902C15.669 22.3853 15.3312 22.0566 14.9149 22.0566C14.4986 22.0566 14.1608 22.3853 14.1608 22.7902V24.4275L8.63436 20.745L14.1608 17.0626V18.6999C14.1608 19.1048 14.4986 19.4334 14.9149 19.4334H27.4157C27.8319 19.4334 28.1698 19.1048 28.1698 18.6999V15.1025C28.1698 13.7469 29.304 12.6466 30.6947 12.6466H41.844C43.2377 12.6466 44.3689 13.7498 44.3689 15.1025V25.7391C44.3689 27.4498 42.939 28.8406 41.1804 28.8406C40.8757 28.8406 40.6012 29.0196 40.4835 29.2925C40.4503 29.3717 40.4322 29.4568 40.4262 29.5389L39.2347 45.2078C39.2347 45.2078 39.2347 45.2254 39.2347 45.2342C39.2347 45.243 39.2347 45.2518 39.2347 45.2606C39.2347 45.2752 39.2377 45.2929 39.2407 45.3075C39.2407 45.3339 39.2437 45.3574 39.2497 45.3809C39.2528 45.4044 39.2588 45.4278 39.2678 45.4513C39.2739 45.4748 39.2799 45.4983 39.289 45.5188C39.298 45.5423 39.3071 45.5628 39.3191 45.5833C39.3312 45.6039 39.3402 45.6244 39.3523 45.645C39.3644 45.6655 39.3795 45.6831 39.3945 45.7036C39.4096 45.7213 39.4247 45.7389 39.4398 45.7565C39.4549 45.7741 39.473 45.7887 39.4911 45.8063C39.5092 45.821 39.5273 45.8386 39.5484 45.8504C39.5665 45.865 39.5876 45.8768 39.6087 45.8885C39.6298 45.9002 39.6509 45.912 39.6721 45.9237C39.6932 45.9325 39.7173 45.9413 39.7414 45.9501C39.7656 45.9589 39.7867 45.9648 39.8108 45.9707C39.835 45.9765 39.8621 45.9795 39.8862 45.9824C39.9013 45.9824 39.9164 45.9883 39.9345 45.9912C39.9526 45.9912 39.9707 45.9912 39.9888 45.9912H47.2497C47.666 45.9912 48.0039 45.6626 48.0039 45.2576C48.0039 44.8527 47.666 44.5241 47.2497 44.5241L47.2467 44.5329Z" fill="white"/>
<path id="Vector_3" d="M11.7715 9.36901C14.4261 9.36901 16.586 7.2681 16.586 4.68597C16.586 2.10385 14.4261 0 11.7715 0C9.11691 0 6.95703 2.10091 6.95703 4.68304C6.95703 7.26517 9.11691 9.36608 11.7715 9.36608V9.36901ZM11.7715 1.46712C13.5965 1.46712 15.0777 2.91076 15.0777 4.68304C15.0777 6.45532 13.5935 7.89896 11.7715 7.89896C9.94949 7.89896 8.46533 6.45532 8.46533 4.68304C8.46533 2.91076 9.94949 1.46712 11.7715 1.46712Z" fill="white"/>
<path id="Vector_4" d="M32.7352 26.4697C32.8468 26.5255 32.9675 26.5548 33.0882 26.5548C33.239 26.5548 33.3868 26.5108 33.5135 26.4257L41.1274 21.3524C41.3325 21.2145 41.4562 20.9886 41.4562 20.7479C41.4562 20.5073 41.3325 20.2785 41.1274 20.1435L33.5135 15.0673C33.2812 14.9147 32.9826 14.8971 32.7352 15.0233C32.4879 15.1494 32.334 15.3988 32.334 15.6717V18.7028C32.334 19.1077 32.6719 19.4363 33.0882 19.4363C33.5045 19.4363 33.8423 19.1077 33.8423 18.7028V17.0655L39.3687 20.7479L33.8423 24.4304V22.7931C33.8423 22.3882 33.5045 22.0595 33.0882 22.0595H20.5874C20.1711 22.0595 19.8333 22.3882 19.8333 22.7931V25.7449C19.8333 27.4556 18.4034 28.8464 16.6176 28.8464C16.3551 28.8464 16.1138 28.9785 15.975 29.1956C15.9087 29.3012 15.8725 29.4186 15.8634 29.5389L14.6719 45.2165C14.6719 45.2165 14.6719 45.2341 14.6719 45.2429C14.6719 45.2517 14.6719 45.2605 14.6719 45.2693C14.6719 45.284 14.6749 45.3016 14.6779 45.3163C14.6779 45.3427 14.6809 45.3662 14.687 45.3896C14.69 45.4131 14.696 45.4366 14.7051 45.4601C14.7111 45.4835 14.7171 45.507 14.7262 45.5276C14.7352 45.551 14.7443 45.5716 14.7563 45.5921C14.7684 45.6127 14.7775 45.6332 14.7895 45.6537C14.8016 45.6743 14.8167 45.6919 14.8318 45.7124C14.8468 45.73 14.8619 45.7476 14.877 45.7652C14.8921 45.7828 14.9102 45.7975 14.9283 45.8151C14.9464 45.8298 14.9645 45.8474 14.9856 45.8591C15.0037 45.8738 15.0248 45.8855 15.0459 45.8973C15.067 45.909 15.0882 45.9207 15.1093 45.9325C15.1304 45.9413 15.1545 45.9501 15.1787 45.9589C15.2028 45.9677 15.2239 45.9736 15.248 45.9794C15.2722 45.9853 15.2993 45.9882 15.3235 45.9912C15.3385 45.9912 15.3536 45.997 15.3717 46C15.3898 46 15.4079 46 15.426 46H32.5753C32.9916 46 33.3295 45.6713 33.3295 45.2664C33.3295 45.2488 33.3265 45.2312 33.3235 45.2136H33.3265L32.1319 29.5242H32.1259C32.1138 29.4098 32.0746 29.2954 32.0082 29.1927C31.8695 28.9755 31.6161 28.8435 31.3536 28.8435C29.595 28.8435 28.1651 27.4527 28.1651 25.742V25.5484H26.6568V25.742C26.6568 28.0307 28.3974 29.9321 30.6749 30.2607L31.7609 44.5329H16.2375L17.3235 30.2637C19.595 29.9438 21.3446 28.0366 21.3446 25.742V23.5237H32.337V25.8212C32.337 26.0941 32.4909 26.3435 32.7382 26.4697H32.7352Z" fill="white"/>
<path id="Vector_5" d="M8.76923 45.2136L7.57466 29.5243C7.56863 29.4274 7.54148 29.3365 7.49623 29.2485C7.36953 28.999 7.10709 28.8435 6.82051 28.8435C5.06184 28.8435 3.63198 27.4527 3.63198 25.742V15.1054C3.63198 13.7498 4.76621 12.6495 6.15686 12.6495H17.3062C18.6999 12.6495 19.8311 13.7528 19.8311 15.1054V15.9446H21.3394V15.1054C21.3394 12.9429 19.5294 11.1824 17.3062 11.1824H6.15988C3.93665 11.1824 2.1267 12.9429 2.1267 15.1054V25.742C2.1267 28.0278 3.86124 29.9292 6.12066 30.2608L7.20664 44.5329H0.754148C0.337858 44.5329 0 44.8615 0 45.2664C0 45.6714 0.337858 46 0.754148 46H8.01508C8.43137 46 8.76923 45.6714 8.76923 45.2664C8.76923 45.2488 8.76621 45.2312 8.7632 45.2136H8.76621H8.76923Z" fill="white"/>
</g>
<defs>
<clipPath id="clip0_516_92">
<rect width="48" height="46" fill="white"/>
</clipPath>
</defs>
</svg>
