<svg width="51" height="53" viewBox="0 0 51 53" fill="none" xmlns="http://www.w3.org/2000/svg">
<g id="icons" clip-path="url(#clip0_523_324)">
<g id="Group">
<path id="Vector" d="M8.45682 53.0002C8.26157 53.0002 8.06313 52.9301 7.9095 52.7836C7.58623 52.481 7.57022 51.9778 7.87429 51.6593L12.0512 47.2352C13.117 46.1045 14.6246 45.4579 16.1833 45.4579H32.8814C33.2591 45.4579 33.6175 45.3177 33.8928 45.0597L49.3202 30.6026C49.397 30.5325 49.4034 30.4465 49.4034 30.4019C49.4034 30.3605 49.3874 30.2777 49.3106 30.2172C47.1725 28.5164 45.0601 28.5578 42.6595 30.351C39.286 32.8704 36.3445 35.0872 36.3445 35.0872C35.9925 35.3516 35.49 35.2847 35.2243 34.9343C34.9586 34.584 35.0259 34.0839 35.3779 33.8195C35.3779 33.8195 38.3226 31.6027 41.6993 29.0801C44.692 26.8442 47.5886 26.8091 50.3124 28.975C50.7317 29.3094 50.9846 29.8063 51.007 30.3382C51.0294 30.8765 50.8149 31.3925 50.4244 31.762L34.997 46.2191C34.4241 46.7574 33.6752 47.0504 32.8878 47.0504H16.1897C15.0695 47.0504 13.9908 47.5154 13.2227 48.3276L9.04575 52.7517C8.88891 52.9174 8.67447 53.0034 8.46322 53.0034L8.45682 53.0002Z" fill="white"/>
<path id="Vector_2" d="M0.801115 42.7728C0.589868 42.7728 0.381823 42.69 0.224988 42.5276C-0.0822793 42.2091 -0.0694765 41.7058 0.247393 41.4032L7.85226 34.1317C12.266 29.9114 19.0035 29.6216 23.6445 33.415H29.7099C31.1342 33.415 34.4885 33.9374 34.8278 38.7851C34.8566 39.1864 34.7126 39.5845 34.4373 39.8776C34.1588 40.1738 33.7684 40.3426 33.3619 40.3426H20.8183C20.3766 40.3426 20.0181 39.9859 20.0181 39.5463C20.0181 39.1068 20.3766 38.75 20.8183 38.75H33.2178C33.0034 36.2657 31.8223 35.0076 29.7099 35.0076H23.3533C23.1612 35.0076 22.9756 34.9375 22.8316 34.8133C18.8147 31.3606 12.8518 31.5613 8.96291 35.2815L1.35804 42.5531C1.2012 42.7028 1.00276 42.776 0.804315 42.776L0.801115 42.7728Z" fill="white"/>
</g>
<path id="Vector_3" d="M33.5299 30.8443C33.3186 30.8443 33.1138 30.7615 32.9634 30.6118L30.3996 28.0605L31.5326 26.9362L33.5299 28.9237L36.6666 25.8023C37.5116 24.9614 37.87 23.7606 37.6204 22.5981L37.0571 19.964C36.9994 19.6996 37.0827 19.4257 37.2747 19.2346L45.5389 11.0107C48.4356 8.12818 48.6948 3.38239 48.682 1.59874C46.88 1.58281 42.111 1.85036 39.2207 4.72332L30.9565 12.9472C30.7645 13.1383 30.4892 13.218 30.2236 13.1638L27.5766 12.6032C26.4051 12.3548 25.2017 12.7115 24.3567 13.5524L21.22 16.6738L23.2492 18.6931L22.1162 19.8207L19.5204 17.2407C19.2067 16.9286 19.2067 16.4254 19.5204 16.1132L23.2204 12.4281C24.4527 11.2018 26.2035 10.6858 27.9062 11.0457L30.1307 11.5171L38.0877 3.59898C42.207 -0.503427 49.2197 0.00937307 49.5174 0.0316687C49.9079 0.0635197 50.2183 0.372474 50.2504 0.761056C50.2728 1.05727 50.7881 8.03263 46.6688 12.135L38.7118 20.0532L39.1855 22.2668C39.5472 23.9613 39.0287 25.7035 37.7964 26.9298L34.0932 30.6118C33.9428 30.7615 33.7411 30.8443 33.5267 30.8443H33.5299Z" fill="white"/>
<path id="Vector_4" d="M40.3955 10.6351C40.1907 10.6351 39.9858 10.5586 39.829 10.4025C39.5153 10.0904 39.5153 9.58715 39.829 9.27502L41.8102 7.30344C42.1239 6.9913 42.6296 6.9913 42.9433 7.30344C43.257 7.61558 43.257 8.11882 42.9433 8.43096L40.9621 10.4025C40.8052 10.5586 40.6004 10.6351 40.3955 10.6351Z" fill="white"/>
<g id="Group_2">
<path id="Vector_5" d="M19.2276 28.0066C19.0227 28.0066 18.8179 27.9301 18.661 27.7741C18.3474 27.4619 18.3474 26.9587 18.661 26.6466L28.3272 17.0276C28.6408 16.7154 29.1465 16.7154 29.4602 17.0276C29.7739 17.3397 29.7739 17.8429 29.4602 18.1551L19.7941 27.7741C19.6372 27.9301 19.4324 28.0066 19.2276 28.0066Z" fill="white"/>
<path id="Vector_6" d="M25.7276 28.9304C25.5227 28.9304 25.3179 28.8539 25.161 28.6979C24.8474 28.3857 24.8474 27.8825 25.161 27.5703L32.0425 20.7224C32.3562 20.4102 32.8619 20.4102 33.1756 20.7224C33.4893 21.0345 33.4893 21.5378 33.1756 21.8499L26.2941 28.6979C26.1372 28.8539 25.9324 28.9304 25.7276 28.9304Z" fill="white"/>
</g>
</g>
<defs>
<clipPath id="clip0_523_324">
<rect width="51" height="53" fill="white"/>
</clipPath>
</defs>
</svg>
