<svg width="58" height="56" viewBox="0 0 58 56" fill="none" xmlns="http://www.w3.org/2000/svg">
<g id="icons" clip-path="url(#clip0_523_289)">
<path id="Vector" d="M56.5869 28C56.5869 27.515 56.1903 27.1214 55.7017 27.1214H29.2634V0.878624C29.2634 0.393624 28.8668 0 28.3782 0C27.8896 0 27.493 0.393624 27.493 0.878624V27.1214H1.05119C0.562573 27.1214 0.166016 27.515 0.166016 28C0.166016 28.485 0.562573 28.8786 1.05119 28.8786H27.4895V55.1214C27.4895 55.6064 27.8861 56 28.3747 56C28.8633 56 29.2598 55.6064 29.2598 55.1214V28.8786H55.6982C56.1868 28.8786 56.5833 28.485 56.5833 28H56.5869Z" fill="white"/>
<path id="Vector_2" d="M22.8125 42.9859L14.7114 51.3118L9.59514 46.3036C9.42873 46.1384 9.20213 46.0471 8.9649 46.0506C8.73121 46.0506 8.50461 46.149 8.34174 46.3142L0.251267 54.5065C-0.0921797 54.8544 -0.0850983 55.4097 0.26543 55.7506C0.438923 55.9193 0.661987 56.0001 0.88505 56.0001C1.10811 56.0001 1.34534 55.9123 1.51883 55.7365L8.98614 48.1733L14.106 53.185C14.2759 53.3502 14.5096 53.4345 14.7398 53.4381C14.977 53.4381 15.2001 53.3396 15.3665 53.171L24.0907 44.209C24.4306 43.8611 24.42 43.3022 24.0695 42.9649C23.7189 42.6275 23.156 42.638 22.8161 42.9859H22.8125Z" fill="white"/>
<path id="Vector_3" d="M14.7259 35.5419C15.2145 35.5419 15.6111 35.1483 15.6111 34.6633C15.6111 34.1783 15.2145 33.7847 14.7259 33.7847C12.2191 33.7847 10.1797 35.809 10.1797 38.2973C10.1797 40.7855 12.2191 42.8099 14.7259 42.8099C17.2327 42.8099 19.2722 40.7855 19.2722 38.2973C19.2722 37.8123 18.8756 37.4187 18.387 37.4187C17.8984 37.4187 17.5018 37.8123 17.5018 38.2973C17.5018 39.8155 16.2555 41.0526 14.7259 41.0526C13.1964 41.0526 11.95 39.8155 11.95 38.2973C11.95 36.779 13.1964 35.5419 14.7259 35.5419Z" fill="white"/>
<path id="Vector_4" d="M6.0649 22.5806C6.19945 22.6579 6.3517 22.6931 6.50041 22.6931C6.65974 22.6931 6.81553 22.6509 6.95715 22.5666L21.5837 13.819C21.8493 13.6608 22.0122 13.3761 22.0122 13.0669C22.0122 12.7576 21.8493 12.4729 21.5837 12.3148L6.95715 3.56718C6.68452 3.40551 6.34462 3.39849 6.0649 3.55312C5.78519 3.70776 5.61523 4.00298 5.61523 4.31928V21.8145C5.61523 22.1308 5.78873 22.4225 6.0649 22.5806ZM7.38558 5.87621L19.4133 13.0704L7.38558 20.261V5.87621Z" fill="white"/>
<path id="Vector_5" d="M36.3278 8.26939C36.8164 8.26939 37.213 7.87577 37.213 7.39077V5.64055H42.9206V20.0781H40.5377C40.0491 20.0781 39.6525 20.4717 39.6525 20.9567C39.6525 21.4417 40.0491 21.8354 40.5377 21.8354H47.0702C47.5589 21.8354 47.9554 21.4417 47.9554 20.9567C47.9554 20.4717 47.5589 20.0781 47.0702 20.0781H44.6874V5.64055H50.395V7.39077C50.395 7.87577 50.7915 8.26939 51.2801 8.26939C51.7687 8.26939 52.1653 7.87577 52.1653 7.39077V4.76193C52.1653 4.27692 51.7687 3.8833 51.2801 3.8833H36.3207C35.8321 3.8833 35.4355 4.27692 35.4355 4.76193V7.39077C35.4355 7.87577 35.8321 8.26939 36.3207 8.26939H36.3278Z" fill="white"/>
<path id="Vector_6" d="M51.9941 38.8843C51.6471 38.5399 51.0877 38.5399 50.7407 38.8843C50.3937 39.2287 50.3937 39.784 50.7407 40.1284C51.6542 41.0352 52.157 42.2406 52.157 43.5269C52.157 44.8132 51.6542 46.0152 50.7407 46.9219C50.3937 47.2664 50.3937 47.8217 50.7407 48.1661C50.9142 48.3383 51.1408 48.4226 51.3674 48.4226C51.594 48.4226 51.8206 48.3383 51.9941 48.1661C53.244 46.929 53.9309 45.2807 53.9309 43.5269C53.9309 41.7732 53.244 40.1284 51.9941 38.8878V38.8843Z" fill="white"/>
<path id="Vector_7" d="M54.873 36.0269C54.526 35.6824 53.9666 35.6824 53.6196 36.0269C53.2726 36.3713 53.2726 36.9266 53.6196 37.271C55.3014 38.9404 56.2291 41.1615 56.2291 43.5233C56.2291 45.885 55.3014 48.1062 53.6196 49.7756C53.2726 50.12 53.2726 50.6753 53.6196 51.0197C53.7931 51.1919 54.0197 51.2763 54.2463 51.2763C54.4729 51.2763 54.6995 51.1919 54.873 51.0197C56.8912 49.0165 57.9994 46.356 57.9994 43.5233C57.9994 40.6906 56.8877 38.0301 54.873 36.0269Z" fill="white"/>
<path id="Vector_8" d="M46.931 33.806C46.3043 33.5249 45.5997 33.6198 45.0757 34.0556L38.6529 38.8107H35.1511C33.9969 38.8107 33.0586 39.742 33.0586 40.8877V46.0611C33.0586 47.2068 33.9969 48.1381 35.1511 48.1381H38.6529L45.0757 52.8933C45.4014 53.1639 45.7944 53.3045 46.1981 53.3045C46.4424 53.3045 46.6938 53.2517 46.931 53.1463C47.5683 52.8581 47.9649 52.2501 47.9649 51.5578V35.3981C47.9649 34.7057 47.5683 34.0942 46.931 33.8095V33.806ZM46.1591 51.505L39.4779 46.5566C39.3256 46.4442 39.138 46.3809 38.9468 46.3809H35.1511C34.9776 46.3809 34.8289 46.2333 34.8289 46.0611V40.8877C34.8289 40.7155 34.9776 40.5679 35.1511 40.5679H38.9468C39.138 40.5679 39.3221 40.5082 39.4779 40.3922L46.1591 35.4438C46.1768 35.4297 46.1768 35.4051 46.1945 35.3911L46.2158 51.5437C46.2158 51.5437 46.1804 51.5156 46.1627 51.5015L46.1591 51.505Z" fill="white"/>
</g>
<defs>
<clipPath id="clip0_523_289">
<rect width="58" height="56" fill="white"/>
</clipPath>
</defs>
</svg>
