<svg width="52" height="53" viewBox="0 0 52 53" fill="none" xmlns="http://www.w3.org/2000/svg">
<g id="icons" clip-path="url(#clip0_516_175)">
<path id="Vector" d="M44.0095 53.0001C43.5362 53.0001 43.1521 52.6085 43.1521 52.126V15.5701C43.1521 15.0876 43.5362 14.6959 44.0095 14.6959H49.3182L39.1946 2.23091L29.071 14.6994H34.3797C34.853 14.6994 35.2371 15.091 35.2371 15.5736V52.1295C35.2371 52.612 34.853 53.0036 34.3797 53.0036H27.2466C26.7733 53.0036 26.3892 52.612 26.3892 52.1295V26.7869H18.4742V52.1295C18.4742 52.612 18.0901 53.0036 17.6168 53.0036H10.4837C10.0104 53.0036 9.62633 52.612 9.62633 52.1295V37.1295H1.7147V52.1295C1.7147 52.612 1.33061 53.0036 0.85735 53.0036C0.384093 53.0036 0 52.612 0 52.1295V36.2554C0 35.7729 0.384093 35.3813 0.85735 35.3813H10.4871C10.9604 35.3813 11.3445 35.7729 11.3445 36.2554V51.2554H16.7629V25.9127C16.7629 25.4302 17.147 25.0386 17.6203 25.0386H27.25C27.7233 25.0386 28.1074 25.4302 28.1074 25.9127V51.2554H33.5258V16.4442H27.25C26.9174 16.4442 26.6156 16.2484 26.475 15.9407C26.3344 15.633 26.3789 15.2729 26.5916 15.0106L38.5327 0.300841C38.8585 -0.101257 39.5273 -0.101257 39.8531 0.300841L51.8011 15.0141C52.0137 15.2764 52.0583 15.6365 51.9177 15.9442C51.7771 16.2519 51.4753 16.4477 51.1427 16.4477H44.8668V52.1295C44.8668 52.612 44.4828 53.0036 44.0095 53.0036V53.0001Z" fill="white"/>
</g>
<defs>
<clipPath id="clip0_516_175">
<rect width="52" height="53" fill="white"/>
</clipPath>
</defs>
</svg>
