<svg width="92" height="31" viewBox="0 0 92 31" fill="none" xmlns="http://www.w3.org/2000/svg">
<g id="Group 15">
<g id="Group 10">
<path id="Vector" d="M8.73849 0.743246C9.04986 0.604126 9.40428 0.652708 9.71674 0.519661C9.96241 0.325888 10.2324 0.345762 10.5321 0.358459C11.3729 0.391583 12.2248 0.160821 13.0578 0.362324C13.2963 0.412009 13.5966 0.29718 13.7921 0.481569C14.0896 0.617376 14.4325 0.368948 14.6842 0.633938L14.682 0.631729C15.6398 0.590877 15.5929 1.08276 16.3768 1.10319C16.4961 1.10043 16.6054 1.14735 16.6942 1.2274C17.0647 1.53325 17.5693 1.57686 17.8784 1.96827C18.3515 2.24706 18.8622 2.46347 19.2083 2.91395C19.3668 3.13091 19.8979 3.33407 19.8956 3.52674C19.8962 3.68628 19.8598 3.8243 19.6837 3.89717C19.4777 3.98219 19.422 4.25491 19.1901 4.31674C19.072 4.50389 19.0471 4.73796 18.7656 4.76115H18.7667C18.5282 5.1095 17.6874 6.3417 17.2794 5.65328C16.8924 5.08079 16.1841 4.80697 15.6128 4.44206C15.3919 4.48677 15.2826 4.30128 15.1286 4.20798H15.1308C14.9127 4.22565 14.6985 4.23338 14.5749 3.9993C14.0532 3.75253 13.4846 3.92919 12.9722 3.65702C12.8508 3.59354 12.7222 3.74922 12.5759 3.67414C12.0001 3.44062 11.3619 3.65482 10.7618 3.65978L10.7651 3.65702C10.557 3.77406 10.3483 3.88723 10.101 3.76523L10.1037 3.76744C9.4777 3.99268 8.83345 4.14339 8.22784 4.43212C7.93304 4.79427 7.41962 4.82077 7.10936 5.16139C7.07403 5.20059 7.00447 5.18237 6.95313 5.20003L6.95533 5.20169C6.89516 5.25469 6.80738 5.29278 6.78309 5.36676C6.71795 5.56219 6.55233 5.59641 6.39002 5.64334C6.19073 5.8476 5.97322 6.0353 5.79104 6.25558V6.25061C5.72424 6.46039 5.5139 6.53989 5.38582 6.69446C5.25995 6.89541 5.20585 7.11679 5.03637 7.29676C4.6433 7.84606 4.35457 8.49805 4.10559 9.10421C4.1735 9.6099 3.63745 9.88096 3.69486 10.3795C3.51102 11.7856 3.50054 13.2656 3.9742 14.5856C3.96924 15.0113 4.08296 15.0516 4.29495 15.364C4.34298 15.7748 4.65158 16.0801 4.74488 16.4731L4.74212 16.4704C5.57739 17.7064 6.69863 18.8017 7.98935 19.5647C8.28967 19.6541 8.62642 19.6673 8.82958 19.9621C9.36453 20.1189 9.58977 19.9715 10.1032 20.3331L10.1015 20.332C12.5908 20.7455 15.2136 20.3707 17.1756 18.746C17.4241 18.3391 17.7774 18.0123 18.1671 17.7384C18.8793 16.8314 19.2067 15.7549 19.433 14.6375C19.5053 14.2422 19.4971 14.2318 19.1007 14.2318C16.7103 14.1534 14.2044 14.3836 11.8692 14.1489C11.7947 13.1817 11.8659 12.182 11.8433 11.2037C11.8433 10.926 11.8736 10.9028 12.1464 10.9608C15.6509 11.0392 19.2067 10.8901 22.6902 11.0083L22.683 11.0027C23.2097 13.5295 22.8448 16.3489 21.5275 18.5627L21.5292 18.5616C21.3912 18.7288 21.4127 18.9933 21.1941 19.112H21.1963C19.9553 21.2451 17.625 22.6717 15.2727 23.4169C14.7444 23.5864 14.1901 23.8144 13.6358 23.693C12.1563 23.842 10.6 23.8879 9.16579 23.4722L9.17131 23.4733C5.96494 22.8207 2.85242 20.4176 1.38504 17.5149C0.990866 16.8612 0.715387 16.1562 0.498979 15.4181C0.429971 15.2194 0.235094 15.0554 0.335017 14.8114C0.254416 14.5337 0.22074 14.2511 0.0733399 13.9916C0.00267606 13.8795 -0.0210626 13.7167 0.0556739 13.5715C0.0556739 12.967 -0.0243749 12.3216 0.010957 11.6989C-0.0668836 10.4319 0.280363 9.208 0.72422 8.03156C0.905296 7.24763 1.46288 6.57964 1.77645 5.82386L1.77534 5.82662C2.36439 5.09349 2.89713 4.31287 3.58942 3.66531C3.9339 3.35615 4.12657 2.86813 4.64441 2.78201L4.64054 2.78366C4.93203 2.40385 5.29584 2.11622 5.78331 1.99974C6.08749 1.80099 6.28348 1.4808 6.69531 1.51392C7.10605 1.23403 7.52617 1.08221 8.0048 0.963518C8.2052 0.742142 8.4735 0.746006 8.73904 0.741038L8.73849 0.743246Z" fill="white"/>
<path id="Vector_2" d="M71.1424 9.13161C70.1448 9.11008 69.134 9.17577 68.1303 9.1305C67.9366 9.21994 68.0795 9.71403 68.0359 9.91333C68.0332 10.0447 67.9625 10.1292 67.8538 10.0193C67.7384 9.90284 67.5871 9.91277 67.4623 9.84321C67.331 9.66048 67.1493 9.56718 66.9484 9.47885C66.5095 8.93397 65.6527 8.97758 65.0261 8.7689C64.9157 8.51992 63.2164 8.66677 62.9305 8.74682L62.9349 8.74461C61.854 8.90692 60.8216 9.36458 59.9383 10.0044C59.7026 9.95528 59.6976 10.2054 59.5662 10.2915C59.299 10.3616 59.0677 10.4726 59.0103 10.7812C58.3925 11.3768 57.8675 12.0901 57.5192 12.8818C57.3696 12.9486 57.3916 13.096 57.3618 13.2185L57.3629 13.2135C57.215 13.3891 57.2034 13.616 57.1344 13.8208C57.0714 13.8688 57.1327 13.9401 57.1024 13.9942C56.9125 14.0759 57.0477 14.2647 56.9732 14.3845C56.9009 14.5567 56.8584 14.7356 56.8606 14.9233C56.5332 16.8715 56.9263 19.0455 58.1275 20.6167C58.1386 20.7691 58.2253 20.869 58.3528 20.9396C58.8463 21.5535 59.4039 22.0935 60.0609 22.5395C60.1133 22.7079 60.2292 22.7719 60.4004 22.746C62.7577 24.1024 65.8211 24.2653 67.8405 22.1972C67.9305 22.0438 68.1044 22.0554 68.0663 22.2751C68.1657 24.1168 67.8664 26.3035 65.9806 27.1481C64.2311 27.9944 61.8909 27.5274 60.8983 25.7751C60.7642 25.5383 60.412 24.6683 60.0592 24.9172C59.3581 25.2292 58.6492 25.4583 57.9686 25.7994C57.7439 25.8381 57.4297 25.9341 57.3635 26.1323C57.7312 27.0587 58.3589 27.8305 58.9882 28.5791C59.3487 29.1201 60.0189 29.3409 60.5594 29.6705C60.7482 29.9327 61.1192 29.8974 61.3864 30.0509C61.8142 30.386 62.2145 30.36 62.7135 30.4318L62.7096 30.4301C64.156 30.6289 65.5881 30.6697 66.9605 30.0475C67.1526 29.9945 67.363 29.9841 67.5087 29.8195L67.5076 29.8218C67.904 29.7307 68.2639 29.5717 68.5378 29.2581C68.7277 29.1008 68.9904 29.0395 69.0473 28.7596C69.3305 28.6199 69.4382 28.3356 69.6397 28.1126C69.8964 27.9597 69.9858 27.6913 70.1034 27.4424C70.3082 27.0852 70.5765 26.7827 70.6963 26.3774C70.7979 26.1522 70.7438 25.8861 70.8813 25.6857C71.0038 25.5063 71.0314 25.3158 71.0772 25.1149C71.2208 24.2299 71.2627 23.3328 71.2671 22.4368C71.2804 18.1252 71.2373 13.812 71.2881 9.5037C71.2942 9.36789 71.3008 9.21276 71.1429 9.13216L71.1424 9.13161ZM66.7706 19.851C62.0179 23.5641 57.4557 15.6923 61.8915 12.4611C63.9407 10.9286 66.7811 11.67 67.8245 14.0102C68.5554 15.705 68.6283 18.2864 66.7701 19.851H66.7706Z" fill="white"/>
<path id="Vector_3" d="M73.4244 12.188C73.4244 8.62996 73.4244 5.07137 73.4244 1.51334C73.4244 1.12911 73.4244 1.12745 73.7987 1.12745C74.6632 1.12745 75.5277 1.1396 76.3917 1.12469C76.6755 1.11972 76.7478 1.21799 76.7478 1.49126C76.7412 8.63548 76.7428 15.7797 76.7428 22.9239C76.7428 23.3043 76.7412 23.3048 76.3613 23.3054C75.5156 23.3054 74.6693 23.3054 73.8235 23.3054C73.5571 23.3054 73.4238 23.1766 73.4238 22.919C73.4238 19.3422 73.4238 15.7654 73.4238 12.1891L73.4244 12.188Z" fill="white"/>
<path id="Vector_4" d="M55.3627 15.126C54.5297 7.78526 44.1438 6.35543 41.0169 12.8835L41.018 12.883C38.4967 18.2551 42.8597 24.5712 48.8308 23.6984C52.9767 23.3341 56.1042 19.2085 55.3627 15.126ZM51.182 19.0909C46.6589 24.3432 40.4229 16.4212 45.4864 12.4325C49.7058 9.46463 54.1929 15.3452 51.182 19.0909Z" fill="white"/>
<path id="Vector_5" d="M82.3467 18.3442C85.4896 17.0463 88.633 15.7506 91.7726 14.4455C91.9034 14.3908 92.0602 14.3655 91.9735 14.143C90.4134 8.72284 84.211 7.03132 80.5895 10.4574C78.6319 12.2571 77.9125 15.0268 78.3321 17.6088C79.2794 23.8339 87.5869 26.2408 91.7903 20.5938C91.8951 20.4514 91.8653 20.3779 91.7295 20.2891C88.2256 18.1432 90.2379 18.4386 87.8789 20.1455C86.0306 21.3297 83.2587 20.8649 82.1778 18.8774C81.9487 18.5109 81.9492 18.5087 82.3473 18.3447L82.3467 18.3442ZM81.6969 15.8682C81.5457 15.9311 81.4253 15.994 81.4187 15.729C81.2288 12.7142 85.478 10.0528 87.8193 12.6474C88.2162 13.1167 88.2013 13.1686 87.6537 13.396C85.669 14.2219 83.6827 15.0434 81.6969 15.8676V15.8682Z" fill="white"/>
<path id="Vector_6" d="M38.1774 12.7322C33.8167 4.79963 21.8585 9.40492 24.1324 18.3406C27.8324 28.7889 42.802 22.6091 38.1774 12.7322ZM35.6805 16.5133C35.7423 20.932 29.2224 22.5307 27.5591 18.1192C26.8629 16.2985 27.0457 14.5529 28.3524 13.054C31.0984 9.88135 36.0503 12.4595 35.6805 16.5133Z" fill="white"/>
</g>
</g>
</svg>
