<svg width="52" height="51" viewBox="0 0 52 51" fill="none" xmlns="http://www.w3.org/2000/svg">
<g id="Group 11">
<g id="Group 14">
<path id="Vector" d="M43.4084 34.244C43.4178 34.2252 43.421 34.2032 43.4272 34.1812C43.4367 34.153 43.4461 34.1247 43.4524 34.0965C43.4555 34.0776 43.4524 34.0619 43.4586 34.0431C43.4618 34.0117 43.4681 33.9772 43.4681 33.9458C43.4681 33.9144 43.4618 33.8798 43.4586 33.8484C43.4586 33.8296 43.4586 33.8139 43.4524 33.7951C43.4461 33.7668 43.4367 33.7386 43.4272 33.7103C43.421 33.6883 43.4178 33.6695 43.4084 33.6475C43.3958 33.6161 43.377 33.5879 43.3613 33.5565C43.3519 33.5408 43.3456 33.5251 43.3362 33.5094C43.3079 33.4654 43.2734 33.4246 43.2357 33.3869L36.5546 26.7058C36.2469 26.3981 35.7508 26.3981 35.4431 26.7058L29.6631 32.4858L25.4434 36.7055C22.3697 39.7792 17.3714 39.7761 14.2977 36.7055C11.2239 33.6318 11.2239 28.6335 14.2977 25.5598L18.5173 21.3401L20.6334 19.224L24.2974 15.5632C24.3351 15.5255 24.3665 15.4847 24.3979 15.4407C24.4073 15.425 24.4136 15.4093 24.423 15.3936C24.4387 15.3654 24.4575 15.334 24.4701 15.3026C24.4795 15.2838 24.4826 15.2618 24.4889 15.2398C24.4983 15.2115 24.5078 15.1833 24.514 15.155C24.5172 15.1362 24.514 15.1205 24.5203 15.1017C24.5235 15.0703 24.5297 15.0357 24.5297 15.0043C24.5297 14.9729 24.5235 14.9384 24.5203 14.907C24.5203 14.8882 24.5203 14.8725 24.514 14.8536C24.5078 14.8254 24.4983 14.7971 24.4889 14.7689C24.4826 14.7469 24.4795 14.728 24.4701 14.7061C24.4575 14.6747 24.4387 14.6464 24.423 14.615C24.4136 14.5993 24.4073 14.5836 24.3979 14.5679C24.3696 14.524 24.3351 14.4831 24.2974 14.4455L17.6163 7.76431C17.3211 7.46919 16.7999 7.46919 16.5048 7.76431L10.7247 13.5444L6.50507 17.7641C-0.863668 25.1328 -0.863668 37.1199 6.50507 44.4887C10.0686 48.0522 14.8157 50.0145 19.8674 50.0145C24.9191 50.0145 29.6662 48.0522 33.2297 44.4887L43.2294 34.4889C43.2671 34.4513 43.2985 34.4104 43.3299 34.3665C43.3393 34.3508 43.3456 34.3351 43.355 34.3194C43.3707 34.2911 43.3896 34.2597 43.4021 34.2283L43.4084 34.244ZM32.1277 43.393C28.8593 46.6613 24.5078 48.4603 19.8737 48.4603C15.2395 48.4603 10.888 46.6613 7.61964 43.393C0.866273 36.6364 0.866273 25.6414 7.62278 18.8849L11.2867 15.221L12.6399 16.5741L16.8565 20.7907L13.1925 24.4546C9.50656 28.1406 9.50656 34.1341 13.1925 37.8201C16.8784 41.506 22.8751 41.506 26.5579 37.8201L30.2219 34.1561L31.5751 35.5093L35.7916 39.7258L32.1277 43.3898V43.393Z" fill="white"/>
<path id="Vector_2" d="M39.6823 21.6699C39.6823 22.1032 40.034 22.4548 40.4672 22.4548C40.9005 22.4548 41.2522 22.1032 41.2522 21.6699C41.2522 15.1049 35.9116 9.76123 29.3435 9.76123C28.9102 9.76123 28.5586 10.1129 28.5586 10.5461C28.5586 10.9794 28.9102 11.3311 29.3435 11.3311C35.0451 11.3311 39.6823 15.9683 39.6823 21.6699Z" fill="white"/>
<path id="Vector_3" d="M29.3435 0C28.9102 0 28.5586 0.35164 28.5586 0.78491C28.5586 1.21818 28.9102 1.56982 29.3435 1.56982C40.4264 1.56982 49.4435 10.5869 49.4435 21.6698C49.4435 22.1031 49.7951 22.4547 50.2284 22.4547C50.6617 22.4547 51.0133 22.1031 51.0133 21.6698C51.0133 9.72033 41.293 0 29.3435 0Z" fill="white"/>
</g>
</g>
</svg>
