<svg width="28" height="28" viewBox="0 0 28 28" fill="none" xmlns="http://www.w3.org/2000/svg">
<g id="Capa_1" clip-path="url(#clip0_516_68)">
<path id="Vector" d="M27.9326 7.45771C27.6652 3.28186 24.1359 0.0109669 19.9553 0.0047115C15.9746 -0.00154393 11.9933 -0.00223898 8.01261 0.0047115C3.62223 0.012357 0.0138055 3.62104 0.00547198 8.01653C-0.0021671 12.0005 -0.00147263 15.9839 0.00547198 19.9679C0.0124166 24.3787 3.62709 27.9915 8.03553 27.9971C12.0051 28.0019 15.9739 27.9992 19.9435 27.9971C20.465 27.9971 20.9838 27.9442 21.4942 27.8365C25.3429 27.0205 27.9763 23.7635 27.977 19.824C27.977 17.8897 27.977 15.9561 27.977 13.579C27.9478 11.8344 28.0735 9.64224 27.9332 7.4584L27.9326 7.45771ZM25.3818 20.011C25.3818 23.1296 23.0338 25.4713 19.9087 25.4713C17.9302 25.4713 15.9524 25.4713 13.9739 25.4713C11.9842 25.4713 9.99391 25.4713 8.00428 25.4713C4.96046 25.4699 2.58887 23.1025 2.58679 20.0555C2.58401 16.0846 2.5854 12.1131 2.58679 8.14233C2.58679 5.05284 4.89309 2.68134 7.97789 2.66118C11.9808 2.63547 15.9836 2.63686 19.9865 2.66118C23.0741 2.67926 25.3825 5.0445 25.3825 8.1333C25.3832 12.093 25.3832 16.052 25.3825 20.0117L25.3818 20.011Z" fill="white"/>
<path id="Vector_2" d="M19.791 6.53544C19.7896 5.59157 20.5438 4.8298 21.4813 4.8291C22.414 4.82841 23.1828 5.59504 23.1862 6.52919C23.1897 7.46194 22.4223 8.23067 21.4869 8.23067C20.541 8.23067 19.7924 7.4821 19.791 6.53544Z" fill="white"/>
<path id="Vector_3" d="M14.1366 6.80929C9.98583 6.79817 6.73575 9.97732 6.72464 14.0586C6.71353 18.0517 9.95527 21.3205 13.9429 21.3372C17.9735 21.3539 21.2389 18.1129 21.2556 14.0788C21.2722 10.1365 18.0235 6.81902 14.1366 6.80859V6.80929ZM13.963 18.7634C11.3914 18.762 9.2997 16.6567 9.29831 14.0691C9.29762 11.4675 11.3963 9.36846 13.9957 9.37263C16.5756 9.3768 18.6805 11.4772 18.6833 14.0496C18.686 16.6658 16.5839 18.7648 13.963 18.7634Z" fill="white"/>
</g>
<defs>
<clipPath id="clip0_516_68">
<rect width="28" height="28" fill="white"/>
</clipPath>
</defs>
</svg>
