<svg width="39" height="41" viewBox="0 0 39 41" fill="none" xmlns="http://www.w3.org/2000/svg">
<g id="icons" clip-path="url(#clip0_516_161)">
<path id="Vector" d="M29.7326 41H22.5909C19.3586 41 16.7282 38.3528 16.7282 35.0999V34.3455C16.7282 33.9724 17.0291 33.6696 17.3999 33.6696C17.7707 33.6696 18.0716 33.9724 18.0716 34.3455V35.0999C18.0716 37.6065 20.0975 39.648 22.5909 39.648H29.7326C31.2319 39.648 32.4706 38.515 32.6184 37.0143L33.1692 31.3604C33.2551 30.4762 33.8919 29.7542 34.7544 29.5623L37.1457 29.0323C37.3419 28.989 37.5031 28.8592 37.5918 28.6781C37.6777 28.4969 37.6777 28.2887 37.5891 28.1075L33.7656 20.3202C33.4996 19.7794 33.3841 19.1575 33.4244 18.5166C33.4459 18.1759 33.4593 17.8379 33.4593 17.508C33.4593 12.9221 31.5114 8.53363 28.1151 5.47006C24.6733 2.36592 20.2211 0.938236 15.5836 1.44928C8.15166 2.27669 2.20292 8.3065 1.43179 15.7937C0.961583 20.3553 2.35607 24.7519 5.35731 28.1724C6.40251 29.3649 6.9775 30.8358 6.9775 32.3149V40.324C6.9775 40.6971 6.67657 41 6.30578 41C5.93499 41 5.63406 40.6971 5.63406 40.324V32.3149C5.63406 31.1657 5.17729 30.0111 4.34973 29.0674C1.09861 25.3603 -0.411411 20.596 0.0964087 15.6558C0.932027 7.53858 7.38053 1.00043 15.4331 0.110827C20.4576 -0.443482 25.2778 1.10318 29.0099 4.4696C32.6909 7.79005 34.8001 12.5436 34.8001 17.5135C34.8001 17.8704 34.7867 18.2408 34.7625 18.6086C34.7356 19.0114 34.8082 19.3981 34.9667 19.7253L38.7901 27.5127C39.0642 28.0697 39.0669 28.7078 38.8009 29.2675C38.5349 29.8272 38.0351 30.2247 37.4332 30.3572L35.0419 30.8872C34.749 30.9521 34.5341 31.1954 34.5045 31.4956L33.9537 37.1495C33.7388 39.3451 31.9251 41.0027 29.7326 41.0027V41Z" fill="white"/>
<path id="Vector_2" d="M17.7702 28.8107C17.3833 28.8107 16.9964 28.6646 16.6982 28.378C14.2397 26.0067 8.42795 20.2445 7.55203 17.9381C6.99853 16.4806 7.04152 14.8934 7.67294 13.4711C8.30435 12.0462 9.45165 10.9565 10.8999 10.3995C12.3481 9.84244 13.9253 9.8857 15.3386 10.5211C16.3972 10.997 17.2678 11.7595 17.8723 12.7248C18.493 11.746 19.3931 10.9754 20.4786 10.5076C21.9026 9.89381 23.4825 9.87759 24.92 10.4562C27.889 11.6541 29.3372 15.0611 28.1469 18.0489C27.2334 20.3446 21.3276 26.0445 18.8315 28.3915C18.5333 28.6727 18.1518 28.8107 17.7729 28.8107H17.7702ZM17.6278 27.3992C17.7111 27.4776 17.832 27.4803 17.9153 27.3992C21.822 23.7272 26.2339 19.2116 26.9002 17.5433C27.8164 15.2476 26.7041 12.6275 24.4202 11.7082C23.3159 11.262 22.1041 11.2755 21.0079 11.746C19.9117 12.2165 19.0653 13.0899 18.622 14.2012C18.5924 14.2769 18.5602 14.3824 18.5225 14.5257C18.4446 14.8231 18.1786 15.0286 17.8723 15.0286C17.566 15.0286 17.3 14.8204 17.2248 14.523C17.1925 14.4013 17.1657 14.3094 17.1415 14.2445C16.2629 11.9326 13.6808 10.7726 11.3835 11.6541C10.2711 12.0813 9.38985 12.9195 8.90353 14.0146C8.4172 15.1097 8.38496 16.3292 8.80949 17.4487C9.44628 19.1251 13.7829 23.6867 17.6305 27.3965L17.6278 27.3992Z" fill="white"/>
</g>
<defs>
<clipPath id="clip0_516_161">
<rect width="39" height="41" fill="white"/>
</clipPath>
</defs>
</svg>
