<svg width="57" height="57" viewBox="0 0 57 57" fill="none" xmlns="http://www.w3.org/2000/svg">
<g id="icons" clip-path="url(#clip0_516_168)">
<path id="Vector" d="M42.1799 30.3495C42.1799 30.8432 42.5806 31.2438 43.0742 31.2438C43.5679 31.2438 43.9686 30.8432 43.9686 30.3495V12.034C43.9686 11.5403 43.5679 11.1396 43.0742 11.1396H38.4023V12.9283H42.1799V30.3495Z" fill="white"/>
<path id="Vector_2" d="M31.9916 11.1396H23.2988V12.9283H31.9916V11.1396Z" fill="white"/>
<path id="Vector_3" d="M12.2166 32.0559C12.7102 32.0559 13.1109 31.6552 13.1109 31.1616V12.9283H16.8885V11.1396H12.2166C11.7229 11.1396 11.3223 11.5403 11.3223 12.034V31.1616C11.3223 31.6552 11.7229 32.0559 12.2166 32.0559Z" fill="white"/>
<path id="Vector_4" d="M56.2408 30.8181C53.3146 28.4786 50.2024 28.5144 46.9865 30.929C44.8687 32.5209 42.1643 34.5599 40.2934 35.9729C39.8999 36.2699 39.8212 36.8315 40.1181 37.225C40.2934 37.4575 40.5617 37.5791 40.8336 37.5791C41.0196 37.5791 41.2092 37.5219 41.3702 37.4003C43.2411 35.9873 45.9419 33.9518 48.0597 32.3599C50.6102 30.4461 52.8568 30.3996 55.1247 32.2168C55.1927 32.2705 55.207 32.3385 55.2106 32.3885C55.2106 32.4315 55.2034 32.5102 55.1355 32.5746L38.6336 48.1142C38.3474 48.3825 37.9718 48.5327 37.5783 48.5327H18.2253C16.5476 48.5327 14.9271 49.2338 13.7788 50.4573L9.04252 55.4976C8.70268 55.8589 8.72057 56.4241 9.08187 56.7604C9.25358 56.9214 9.47537 57.0036 9.69358 57.0036C9.93326 57.0036 10.1694 56.9106 10.3446 56.721L15.0809 51.6807C15.893 50.815 17.0377 50.3213 18.2253 50.3213H37.5783C38.4297 50.3213 39.2417 49.9994 39.8606 49.4163L56.3625 33.8767C56.7917 33.4724 57.0243 32.9037 56.9992 32.317C56.9742 31.7303 56.6987 31.1866 56.2444 30.8217L56.2408 30.8181Z" fill="white"/>
<path id="Vector_5" d="M18.6948 34.8354C22.1719 34.8354 23.9462 35.1967 26.9618 37.2214C27.1085 37.3216 27.2838 37.3717 27.4591 37.3717H34.1843C35.1967 37.3717 37.5541 37.7616 37.8975 41.3174H24.676C24.1823 41.3174 23.7816 41.7181 23.7816 42.2117C23.7816 42.7054 24.1823 43.106 24.676 43.106H38.0942C38.5414 43.106 38.9707 42.92 39.2747 42.5909C39.5752 42.2654 39.7326 41.829 39.7004 41.3854C39.3928 37.0998 36.5381 35.5795 34.1879 35.5795H27.7345C24.4363 33.4117 22.2542 33.0432 18.6984 33.0432C13.9871 33.0432 10.2095 35.3613 5.67357 41.0348L0.286222 46.1074C-0.0715035 46.4472 -0.0893898 47.0124 0.246872 47.3701C0.422158 47.5561 0.661834 47.6527 0.897933 47.6527C1.11972 47.6527 1.33794 47.5704 1.50964 47.4095L6.9435 42.294C6.97569 42.2654 7.00431 42.2332 7.02935 42.201C11.2577 36.8995 14.5273 34.8318 18.6948 34.8318V34.8354Z" fill="white"/>
<path id="Vector_6" d="M20.1365 17.0313C20.6302 17.0313 21.0308 16.6307 21.0308 16.137V8.40298C21.0308 4.75417 23.9999 1.78863 27.6452 1.78863C31.2904 1.78863 34.2595 4.75775 34.2595 8.40298V16.137C34.2595 16.6307 34.6602 17.0313 35.1538 17.0313C35.6475 17.0313 36.0481 16.6307 36.0481 16.137V8.40298C36.0481 3.77043 32.2777 0 27.6452 0C23.0126 0 19.2422 3.77043 19.2422 8.40298V16.137C19.2422 16.6307 19.6428 17.0313 20.1365 17.0313Z" fill="white"/>
</g>
<defs>
<clipPath id="clip0_516_168">
<rect width="57" height="57" fill="white"/>
</clipPath>
</defs>
</svg>
