<svg width="62" height="53" viewBox="0 0 62 53" fill="none" xmlns="http://www.w3.org/2000/svg">
<g id="icons" clip-path="url(#clip0_523_298)">
<path id="Vector" d="M10.5064 32.2998H2.02255C0.906076 32.2998 0 33.2025 0 34.3147V50.9852C0 52.0975 0.906076 53.0001 2.02255 53.0001H10.5064C11.6229 53.0001 12.529 52.0975 12.529 50.9852V34.3147C12.529 33.2025 11.6229 32.2998 10.5064 32.2998ZM10.8356 50.9852C10.8356 51.1644 10.6897 51.3098 10.5098 51.3098H2.02255C1.84269 51.3098 1.69677 51.1644 1.69677 50.9852V34.3147C1.69677 34.1356 1.84269 33.9902 2.02255 33.9902H10.5064C10.6863 33.9902 10.8322 34.1356 10.8322 34.3147V50.9852H10.8356Z" fill="white"/>
<path id="Vector_2" d="M25.2954 35.0651V27.9148C25.2954 27.4483 24.9154 27.0697 24.4471 27.0697H6.14909C5.67738 27.0697 5.29052 26.6876 5.29052 26.2143V2.5457C5.29052 2.07578 5.67399 1.69037 6.14909 1.69037H44.2857C44.7574 1.69037 45.1443 2.0724 45.1443 2.5457V20.3014H46.841V2.5457C46.841 1.14269 45.694 0 44.2857 0H6.14909C4.74077 0 3.59375 1.14269 3.59375 2.5457V26.2143C3.59375 27.6173 4.74077 28.76 6.14909 28.76H23.5987V34.2199H16.8761C16.4078 34.2199 16.0277 34.5986 16.0277 35.0651C16.0277 35.5317 16.4078 35.9103 16.8761 35.9103H24.4471C24.9154 35.9103 25.2954 35.5317 25.2954 35.0651Z" fill="white"/>
<path id="Vector_3" d="M28.3555 24.6388V43.4392H30.0522V24.6388C30.0522 24.4055 30.2457 24.2128 30.4798 24.2128H56.0298C56.264 24.2128 56.4574 24.4022 56.4574 24.6388V43.4392H58.1542V24.6388C58.1542 23.4724 57.2006 22.5225 56.0298 22.5225H30.4798C29.3091 22.5225 28.3555 23.4724 28.3555 24.6388Z" fill="white"/>
<path id="Vector_4" d="M61.1508 45.5825H25.3523C24.884 45.5825 24.5039 45.9612 24.5039 46.4277C24.5039 46.8943 24.884 47.2729 25.3523 47.2729H61.1508C61.6191 47.2729 61.9991 46.8943 61.9991 46.4277C61.9991 45.9612 61.6191 45.5825 61.1508 45.5825Z" fill="white"/>
</g>
<defs>
<clipPath id="clip0_523_298">
<rect width="62" height="53" fill="white"/>
</clipPath>
</defs>
</svg>
