<svg width="54" height="52" viewBox="0 0 54 52" fill="none" xmlns="http://www.w3.org/2000/svg">
<g id="icons" clip-path="url(#clip0_523_304)">
<path id="Vector" d="M51.5368 44.2656C51.0835 44.2656 50.7155 44.6311 50.7155 45.0815V50.3716H45.3897C44.9363 50.3716 44.5684 50.7371 44.5684 51.1874C44.5684 51.6378 44.9363 52.0033 45.3897 52.0033H51.5368C51.9902 52.0033 52.3582 51.6378 52.3582 51.1874V45.0815C52.3582 44.6311 51.9902 44.2656 51.5368 44.2656Z" fill="white"/>
<path id="Vector_2" d="M45.3897 3.26357H50.7155V8.55364C50.7155 9.004 51.0835 9.3695 51.5368 9.3695C51.9902 9.3695 52.3582 9.004 52.3582 8.55364V2.4477C52.3582 1.99734 51.9902 1.63184 51.5368 1.63184H45.3897C44.9363 1.63184 44.5684 1.99734 44.5684 2.4477C44.5684 2.89806 44.9363 3.26357 45.3897 3.26357Z" fill="white"/>
<path id="Vector_3" d="M2.46981 9.3695C2.9232 9.3695 3.29117 9.004 3.29117 8.55364V3.26357H8.61692C9.07032 3.26357 9.43829 2.89806 9.43829 2.4477C9.43829 1.99734 9.07032 1.63184 8.61692 1.63184H2.46981C2.01641 1.63184 1.64844 1.99734 1.64844 2.4477V8.55364C1.64844 9.004 2.01641 9.3695 2.46981 9.3695Z" fill="white"/>
<path id="Vector_4" d="M8.61364 50.3681H3.29117V45.0781C3.29117 44.6277 2.9232 44.2622 2.46981 44.2622C2.01641 44.2622 1.64844 44.6277 1.64844 45.0781V51.184C1.64844 51.6344 2.01641 51.9999 2.46981 51.9999H8.61692C9.07032 51.9999 9.43829 51.6344 9.43829 51.184C9.43829 50.7336 9.07032 50.3681 8.61692 50.3681H8.61364Z" fill="white"/>
<path id="Vector_5" d="M24.2035 5.0486C24.1312 4.60477 23.7074 4.30453 23.2605 4.37633C13.5684 5.95911 5.99209 13.4912 4.40521 23.1151C4.33293 23.559 4.63519 23.9799 5.08202 24.0517C5.12801 24.0583 5.17072 24.0615 5.21672 24.0615C5.61098 24.0615 5.95924 23.7776 6.02495 23.3762C7.49684 14.4408 14.531 7.45051 23.5266 5.98195C23.9735 5.91016 24.279 5.48917 24.2035 5.04534V5.0486Z" fill="white"/>
<path id="Vector_6" d="M8.61541 39.7814C8.77312 39.7814 8.93082 39.7357 9.06881 39.6443C9.44664 39.393 9.54849 38.8872 9.29551 38.5119C7.61006 35.999 6.50943 33.2185 6.01989 30.2488C5.94761 29.805 5.52379 29.5047 5.07696 29.5765C4.63014 29.6483 4.32459 30.0693 4.40015 30.5131C4.92583 33.7146 6.11517 36.7105 7.92875 39.4191C8.08645 39.6541 8.346 39.7814 8.61213 39.7814H8.61541Z" fill="white"/>
<path id="Vector_7" d="M45.389 39.7749C45.6551 39.7749 45.9146 39.6476 46.0723 39.4127C47.8794 36.7171 49.0654 33.7343 49.5944 30.5459C49.6667 30.102 49.3644 29.681 48.9176 29.6092C48.4675 29.5374 48.0469 29.8377 47.9746 30.2815C47.4851 33.2382 46.3845 36.0089 44.7089 38.5087C44.4592 38.884 44.561 39.3898 44.9389 39.6411C45.0801 39.7325 45.2378 39.7782 45.3923 39.7782L45.389 39.7749Z" fill="white"/>
<path id="Vector_8" d="M48.7831 24.0552C48.8258 24.0552 48.8718 24.0519 48.9178 24.0454C49.3646 23.9736 49.6702 23.5526 49.5946 23.1088C48.0044 13.4913 40.4314 5.96579 30.7524 4.37975C30.3056 4.30795 29.8818 4.60819 29.8095 5.05202C29.7372 5.49585 30.0395 5.91684 30.4863 5.98863C39.4721 7.46046 46.4997 14.4443 47.9749 23.3698C48.0406 23.7712 48.3888 24.0519 48.7831 24.0519V24.0552Z" fill="white"/>
<path id="Vector_9" d="M26.9991 9.77081C27.4525 9.77081 27.8205 9.4053 27.8205 8.95494V0.815865C27.8205 0.365508 27.4525 0 26.9991 0C26.5457 0 26.1777 0.365508 26.1777 0.815865V8.95494C26.1777 9.4053 26.5457 9.77081 26.9991 9.77081Z" fill="white"/>
<path id="Vector_10" d="M9.01862 26.0034H0.821368C0.367973 26.0034 0 26.3689 0 26.8193C0 27.2696 0.367973 27.6351 0.821368 27.6351H9.01862C9.47201 27.6351 9.83999 27.2696 9.83999 26.8193C9.83999 26.3689 9.47201 26.0034 9.01862 26.0034Z" fill="white"/>
<path id="Vector_11" d="M53.1794 26.0034H44.9854C44.532 26.0034 44.1641 26.3689 44.1641 26.8193C44.1641 27.2696 44.532 27.6351 44.9854 27.6351H53.1794C53.6328 27.6351 54.0008 27.2696 54.0008 26.8193C54.0008 26.3689 53.6328 26.0034 53.1794 26.0034Z" fill="white"/>
<path id="Vector_12" d="M19.9688 25.9053C19.9688 29.753 23.1195 32.8859 26.9964 32.8859C30.8732 32.8859 34.024 29.7562 34.024 25.9053C34.024 22.0545 30.8732 18.9248 26.9964 18.9248C23.1195 18.9248 19.9688 22.0545 19.9688 25.9053ZM32.378 25.9053C32.378 28.8555 29.9632 31.2542 26.9931 31.2542C24.023 31.2542 21.6082 28.8555 21.6082 25.9053C21.6082 22.9552 24.023 20.5565 26.9931 20.5565C29.9632 20.5565 32.378 22.9552 32.378 25.9053Z" fill="white"/>
<path id="Vector_13" d="M36.108 35.2129H17.9919C14.7754 35.2129 12.1602 37.8106 12.1602 41.0055V52.0001H13.8029V41.0055C13.8029 38.7113 15.6822 36.8446 17.9919 36.8446H36.108C38.4176 36.8446 40.2969 38.7113 40.2969 41.0055V52.0001H41.9397V41.0055C41.9397 37.8106 39.3244 35.2129 36.108 35.2129Z" fill="white"/>
</g>
<defs>
<clipPath id="clip0_523_304">
<rect width="54" height="52" fill="white"/>
</clipPath>
</defs>
</svg>
